{
.appVersion = "895";
DisplayStrings = (
ab,
abcdefghijklmnoqpqrstuvwxyz,
"/_corner.lc eadhesion",
a,
abcdefghijklmnoqpqrstuvwxyz,
"abcdefghijklmnopqr/_part.s stuvwxyz"
);
copyright = "Copyright 2009, 2010, 2011 by Daniel Johnson. Released under the terms of the Open Font License.";
customParameters = (
{
name = openTypeNameLicenseURL;
value = "http://scripts.sil.org/OFL";
},
{
name = fsType;
value = (
3
);
}
);
date = "2016-06-29 14:49:48 +0000";
designer = "Daniel Johnson, Alexei Vanyashin (Redesign v.3)";
designerURL = "http://cyreal.org";
familyName = "Jura-dev02";
featurePrefixes = (
{
automatic = 1;
code = "languagesystem DFLT dflt;\012";
name = Languagesystems;
}
);
fontMaster = (
{
alignmentZones = (
"{879, 16}",
"{643, 16}",
"{461, 16}",
"{0, -20}",
"{-257, -16}"
);
ascender = 879;
capHeight = 643;
descender = -257;
guideLines = (
{
position = "{510, 441}";
},
{
position = "{-27, 20}";
}
);
horizontalStems = (
40
);
id = "0E6FACCE-B85C-44A4-8B06-9EFDFED90B40";
userData = {
GSCornerRadius = 15;
GSOffsetHorizontal = 40;
GSOffsetVertical = 40;
noodleExtremesAndInflections = 1;
noodleRemoveOverlap = 1;
noodleThickness = "40.0";
};
verticalStems = (
40
);
weight = Light;
weightValue = 40;
xHeight = 461;
}
);
glyphs = (
{
glyphname = A;
lastChange = "2016-07-15 00:41:30 +0000";
layers = (
{
background = {
paths = (
{
closed = 1;
nodes = (
"52.667 -16 OFFCURVE",
"60 -9.333 OFFCURVE",
"66 4 CURVE",
"138 204 LINE",
"410 204 LINE",
"482 4 LINE SMOOTH",
"487.333 -9.333 OFFCURVE",
"494.667 -16 OFFCURVE",
"504 -16 CURVE SMOOTH",
"518 -16 OFFCURVE",
"525 -9.333 OFFCURVE",
"525 4 CURVE SMOOTH",
"525 8.667 OFFCURVE",
"524 13.333 OFFCURVE",
"522 18 CURVE SMOOTH",
"297 636 LINE",
"251 636 LINE",
"26 18 LINE SMOOTH",
"24 13.333 OFFCURVE",
"23 8.667 OFFCURVE",
"23 4 CURVE SMOOTH",
"23 -9.333 OFFCURVE",
"30 -16 OFFCURVE",
"44 -16 CURVE SMOOTH"
);
},
{
closed = 1;
nodes = (
"273 575 LINE",
"394 246 LINE",
"154 246 LINE"
);
}
);
};
layerId = "0E6FACCE-B85C-44A4-8B06-9EFDFED90B40";
width = 600;
}
);
unicode = 0041;
},
{
glyphname = B;
lastChange = "2016-07-15 00:41:30 +0000";
layers = (
{
background = {
paths = (
{
closed = 1;
nodes = (
"321 0 LINE SMOOTH",
"461 0 OFFCURVE",
"528 35 OFFCURVE",
"528 175 CURVE SMOOTH",
"528 204 LINE SMOOTH",
"528 300 OFFCURVE",
"496.333 347 OFFCURVE",
"431 367 CURVE",
"467.667 390.333 OFFCURVE",
"486 430.333 OFFCURVE",
"486 487 CURVE SMOOTH",
"486 543.667 OFFCURVE",
"468.667 582.667 OFFCURVE",
"434 604 CURVE SMOOTH",
"399.333 625.333 OFFCURVE",
"347.667 636 OFFCURVE",
"279 636 CURVE SMOOTH",
"103 636 LINE SMOOTH",
"90.333 636 OFFCURVE",
"84 625.667 OFFCURVE",
"84 605 CURVE SMOOTH",
"84 31 LINE SMOOTH",
"84 10.333 OFFCURVE",
"90.333 0 OFFCURVE",
"103 0 CURVE SMOOTH"
);
},
{
closed = 1;
nodes = (
"126 337 LINE",
"321 337 LINE SMOOTH",
"432.143 337 OFFCURVE",
"486 326.017 OFFCURVE",
"486 204 CURVE SMOOTH",
"486 175 LINE SMOOTH",
"486 52.983 OFFCURVE",
"432.143 42 OFFCURVE",
"321 42 CURVE SMOOTH",
"126 42 LINE"
);
},
{
closed = 1;
nodes = (
"126 594 LINE",
"279 594 LINE SMOOTH",
"399 594 OFFCURVE",
"444 574 OFFCURVE",
"444 486 CURVE SMOOTH",
"444 398 OFFCURVE",
"397.667 380.333 OFFCURVE",
"279 379 CURVE",
"126 379 LINE"
);
}
);
};
layerId = "0E6FACCE-B85C-44A4-8B06-9EFDFED90B40";
width = 600;
}
);
unicode = 0042;
},
{
glyphname = C;
lastChange = "2016-07-15 00:41:30 +0000";
layers = (
{
background = {
paths = (
{
closed = 1;
nodes = (
"421 0 LINE SMOOTH",
"505 0 OFFCURVE",
"516 48.667 OFFCURVE",
"516 110 CURVE SMOOTH",
"516 127.333 OFFCURVE",
"509 136.333 OFFCURVE",
"495 137 CURVE",
"481 137 OFFCURVE",
"474 126.167 OFFCURVE",
"474 104.5 CURVE SMOOTH",
"474 82.833 OFFCURVE",
"469.667 67 OFFCURVE",
"461 57 CURVE SMOOTH",
"452.333 47 OFFCURVE",
"436.667 42 OFFCURVE",
"414 42 CURVE SMOOTH",
"280 42 LINE SMOOTH",
"167.186 42 OFFCURVE",
"114 52.983 OFFCURVE",
"114 175 CURVE SMOOTH",
"114 461 LINE SMOOTH",
"114 583.017 OFFCURVE",
"167.186 594 OFFCURVE",
"280 594 CURVE SMOOTH",
"414 594 LINE SMOOTH",
"459.333 594 OFFCURVE",
"474 573.667 OFFCURVE",
"474 531 CURVE SMOOTH",
"474 509.667 OFFCURVE",
"481 499 OFFCURVE",
"495 499 CURVE",
"507 498 OFFCURVE",
"517 520 OFFCURVE",
"517 547 CURVE SMOOTH",
"517 589 OFFCURVE",
"494 642 OFFCURVE",
"421 636 CURVE",
"280 636 LINE SMOOTH",
"138.667 636 OFFCURVE",
"72 601 OFFCURVE",
"72 461 CURVE SMOOTH",
"72 175 LINE SMOOTH",
"72 35 OFFCURVE",
"138.667 0 OFFCURVE",
"280 0 CURVE SMOOTH"
);
}
);
};
layerId = "0E6FACCE-B85C-44A4-8B06-9EFDFED90B40";
width = 600;
}
);
unicode = 0043;
},
{
glyphname = D;
lastChange = "2016-07-15 00:41:30 +0000";
layers = (
{
background = {
paths = (
{
closed = 1;
nodes = (
"321 0 LINE SMOOTH",
"461 0 OFFCURVE",
"528 35 OFFCURVE",
"528 175 CURVE SMOOTH",
"528 461 LINE SMOOTH",
"528 601 OFFCURVE",
"461 636 OFFCURVE",
"321 636 CURVE SMOOTH",
"103 636 LINE SMOOTH",
"90.333 636 OFFCURVE",
"84 625.667 OFFCURVE",
"84 605 CURVE SMOOTH",
"84 31 LINE SMOOTH",
"84 10.333 OFFCURVE",
"90.333 0 OFFCURVE",
"103 0 CURVE SMOOTH"
);
},
{
closed = 1;
nodes = (
"126 594 LINE",
"321 594 LINE SMOOTH",
"432.143 594 OFFCURVE",
"486 583.017 OFFCURVE",
"486 461 CURVE SMOOTH",
"486 175 LINE SMOOTH",
"486 52.983 OFFCURVE",
"432.143 42 OFFCURVE",
"321 42 CURVE SMOOTH",
"126 42 LINE"
);
}
);
};
layerId = "0E6FACCE-B85C-44A4-8B06-9EFDFED90B40";
width = 600;
}
);
unicode = 0044;
},
{
glyphname = E;
lastChange = "2016-07-15 00:41:30 +0000";
layers = (
{
background = {
paths = (
{
closed = 1;
nodes = (
"499 0 LINE SMOOTH",
"518.333 0 OFFCURVE",
"528 6.333 OFFCURVE",
"528 19 CURVE SMOOTH",
"528 34.333 OFFCURVE",
"518.333 42 OFFCURVE",
"499 42 CURVE SMOOTH",
"126 42 LINE",
"126 337 LINE",
"381 337 LINE SMOOTH",
"401 337 OFFCURVE",
"411 343.333 OFFCURVE",
"411 356 CURVE SMOOTH",
"411 371.333 OFFCURVE",
"401 379 OFFCURVE",
"381 379 CURVE SMOOTH",
"126 379 LINE",
"126 594 LINE",
"499 594 LINE SMOOTH",
"518.333 594 OFFCURVE",
"528 600.333 OFFCURVE",
"528 613 CURVE SMOOTH",
"528 628.333 OFFCURVE",
"518.333 636 OFFCURVE",
"499 636 CURVE SMOOTH",
"103 636 LINE SMOOTH",
"90.333 636 OFFCURVE",
"84 625.667 OFFCURVE",
"84 605 CURVE SMOOTH",
"84 31 LINE SMOOTH",
"84 10.333 OFFCURVE",
"90.333 0 OFFCURVE",
"103 0 CURVE SMOOTH"
);
}
);
};
layerId = "0E6FACCE-B85C-44A4-8B06-9EFDFED90B40";
width = 600;
}
);
unicode = 0045;
},
{
glyphname = F;
lastChange = "2016-07-15 00:41:30 +0000";
layers = (
{
background = {
paths = (
{
closed = 1;
nodes = (
"116 -7 OFFCURVE",
"126 3 OFFCURVE",
"126 23 CURVE SMOOTH",
"126 337 LINE",
"381 337 LINE SMOOTH",
"401 337 OFFCURVE",
"411 343.333 OFFCURVE",
"411 356 CURVE SMOOTH",
"411 371.333 OFFCURVE",
"401 379 OFFCURVE",
"381 379 CURVE SMOOTH",
"126 379 LINE",
"126 594 LINE",
"499 594 LINE SMOOTH",
"518.333 594 OFFCURVE",
"528 600.333 OFFCURVE",
"528 613 CURVE SMOOTH",
"528 628.333 OFFCURVE",
"518.333 636 OFFCURVE",
"499 636 CURVE SMOOTH",
"103 636 LINE SMOOTH",
"90.333 636 OFFCURVE",
"84 625.667 OFFCURVE",
"84 605 CURVE SMOOTH",
"84 23 LINE SMOOTH",
"84 3 OFFCURVE",
"95 -7 OFFCURVE",
"105 -7 CURVE SMOOTH"
);
}
);
};
layerId = "0E6FACCE-B85C-44A4-8B06-9EFDFED90B40";
width = 600;
}
);
unicode = 0046;
},
{
glyphname = G;
lastChange = "2016-07-15 00:41:30 +0000";
layers = (
{
background = {
paths = (
{
closed = 1;
nodes = (
"421 0 LINE SMOOTH",
"441.667 0 OFFCURVE",
"458.667 3 OFFCURVE",
"472 9 CURVE SMOOTH",
"501.333 21.667 OFFCURVE",
"516 54 OFFCURVE",
"516 106 CURVE SMOOTH",
"516 293 LINE",
"341 293 LINE SMOOTH",
"321 293 OFFCURVE",
"311 283 OFFCURVE",
"311 272 CURVE SMOOTH",
"311 262 OFFCURVE",
"321 251 OFFCURVE",
"341 251 CURVE SMOOTH",
"474 251 LINE",
"474 108 LINE SMOOTH",
"474 60 OFFCURVE",
"459.333 42 OFFCURVE",
"414 42 CURVE SMOOTH",
"280 42 LINE SMOOTH",
"167.186 42 OFFCURVE",
"114 52.983 OFFCURVE",
"114 175 CURVE SMOOTH",
"114 461 LINE SMOOTH",
"114 583.017 OFFCURVE",
"167.186 594 OFFCURVE",
"280 594 CURVE SMOOTH",
"414 594 LINE SMOOTH",
"459.333 594 OFFCURVE",
"474 574.833 OFFCURVE",
"474 531.5 CURVE SMOOTH",
"474 509.833 OFFCURVE",
"481 499 OFFCURVE",
"495 499 CURVE",
"507 498 OFFCURVE",
"517 520 OFFCURVE",
"517 547 CURVE SMOOTH",
"517 589 OFFCURVE",
"494 642 OFFCURVE",
"421 636 CURVE",
"280 636 LINE SMOOTH",
"210.667 636 OFFCURVE",
"170 630 OFFCURVE",
"130 606 CURVE SMOOTH",
"91.333 582.667 OFFCURVE",
"72 534.333 OFFCURVE",
"72 461 CURVE SMOOTH",
"72 175 LINE SMOOTH",
"72 101.667 OFFCURVE",
"91.333 53.333 OFFCURVE",
"130 30 CURVE SMOOTH",
"170 6 OFFCURVE",
"210.667 0 OFFCURVE",
"280 0 CURVE SMOOTH"
);
}
);
};
layerId = "0E6FACCE-B85C-44A4-8B06-9EFDFED90B40";
width = 600;
}
);
unicode = 0047;
},
{
glyphname = H;
lastChange = "2016-07-15 00:41:30 +0000";
layers = (
{
background = {
paths = (
{
closed = 1;
nodes = (
"116 -7 OFFCURVE",
"126 3 OFFCURVE",
"126 23 CURVE SMOOTH",
"126 322 LINE",
"486 322 LINE",
"486 23 LINE SMOOTH",
"486 3 OFFCURVE",
"497 -7 OFFCURVE",
"507 -7 CURVE SMOOTH",
"518 -7 OFFCURVE",
"528 3 OFFCURVE",
"528 23 CURVE SMOOTH",
"528 612 LINE SMOOTH",
"528 633 OFFCURVE",
"518 643 OFFCURVE",
"507 643 CURVE SMOOTH",
"497 643 OFFCURVE",
"486 633 OFFCURVE",
"486 612 CURVE SMOOTH",
"486 364 LINE",
"126 364 LINE",
"126 612 LINE SMOOTH",
"126 632.667 OFFCURVE",
"118.333 643 OFFCURVE",
"103 643 CURVE SMOOTH",
"90.333 643 OFFCURVE",
"84 632.667 OFFCURVE",
"84 612 CURVE SMOOTH",
"84 23 LINE SMOOTH",
"84 3 OFFCURVE",
"95 -7 OFFCURVE",
"105 -7 CURVE SMOOTH"
);
}
);
};
layerId = "0E6FACCE-B85C-44A4-8B06-9EFDFED90B40";
width = 600;
}
);
unicode = 0048;
},
{
glyphname = I;
lastChange = "2016-07-15 00:41:30 +0000";
layers = (
{
background = {
paths = (
{
closed = 1;
nodes = (
"116 -7 OFFCURVE",
"126 2 OFFCURVE",
"126 20 CURVE SMOOTH",
"126 615 LINE SMOOTH",
"126 634 OFFCURVE",
"116 643 OFFCURVE",
"105 643 CURVE SMOOTH",
"95 643 OFFCURVE",
"84 634 OFFCURVE",
"84 615 CURVE SMOOTH",
"84 20 LINE SMOOTH",
"84 2 OFFCURVE",
"95 -7 OFFCURVE",
"105 -7 CURVE SMOOTH"
);
}
);
};
layerId = "0E6FACCE-B85C-44A4-8B06-9EFDFED90B40";
width = 600;
}
);
unicode = 0049;
},
{
glyphname = J;
lastChange = "2016-07-15 00:41:30 +0000";
layers = (
{
background = {
paths = (
{
closed = 1;
nodes = (
"310.333 -8 OFFCURVE",
"351 -2 OFFCURVE",
"391 22 CURVE SMOOTH",
"429.667 45.333 OFFCURVE",
"449 93.667 OFFCURVE",
"449 167 CURVE SMOOTH",
"449 615 LINE SMOOTH",
"449 634 OFFCURVE",
"439 643 OFFCURVE",
"428 643 CURVE SMOOTH",
"418 643 OFFCURVE",
"407 634 OFFCURVE",
"407 615 CURVE SMOOTH",
"407 167 LINE SMOOTH",
"407 44.983 OFFCURVE",
"353.814 34 OFFCURVE",
"241 34 CURVE SMOOTH",
"115.667 34 OFFCURVE",
"75 52.333 OFFCURVE",
"75 167 CURVE SMOOTH",
"75 185.667 OFFCURVE",
"68.333 195 OFFCURVE",
"55 195 CURVE SMOOTH",
"39.667 195 OFFCURVE",
"32 185.667 OFFCURVE",
"32 167 CURVE SMOOTH",
"32 93.667 OFFCURVE",
"51.333 45.333 OFFCURVE",
"90 22 CURVE SMOOTH",
"130 -2 OFFCURVE",
"171.667 -8 OFFCURVE",
"241 -8 CURVE SMOOTH"
);
}
);
};
layerId = "0E6FACCE-B85C-44A4-8B06-9EFDFED90B40";
width = 600;
}
);
unicode = 004A;
},
{
glyphname = K;
lastChange = "2016-07-15 00:41:30 +0000";
layers = (
{
background = {
paths = (
{
closed = 1;
nodes = (
"116 -7 OFFCURVE",
"126 2 OFFCURVE",
"126 20 CURVE SMOOTH",
"126 255 LINE",
"184 325 LINE",
"452 6 LINE",
"459 -3 OFFCURVE",
"467 -7 OFFCURVE",
"474 -7 CURVE SMOOTH",
"485 -7 OFFCURVE",
"493 2 OFFCURVE",
"493 13 CURVE SMOOTH",
"493 19 OFFCURVE",
"491 26 OFFCURVE",
"484 33 CURVE",
"212 357 LINE",
"418 603 LINE SMOOTH",
"424 610 OFFCURVE",
"426 617 OFFCURVE",
"426 623 CURVE SMOOTH",
"426 635 OFFCURVE",
"418 643 OFFCURVE",
"408 643 CURVE SMOOTH",
"401 643 OFFCURVE",
"393 639 OFFCURVE",
"386 630 CURVE",
"126 321 LINE",
"126 615 LINE SMOOTH",
"126 634 OFFCURVE",
"116 643 OFFCURVE",
"105 643 CURVE SMOOTH",
"95 643 OFFCURVE",
"84 634 OFFCURVE",
"84 615 CURVE SMOOTH",
"84 20 LINE SMOOTH",
"84 2 OFFCURVE",
"95 -7 OFFCURVE",
"105 -7 CURVE SMOOTH"
);
}
);
};
layerId = "0E6FACCE-B85C-44A4-8B06-9EFDFED90B40";
width = 600;
}
);
unicode = 004B;
},
{
glyphname = L;
lastChange = "2016-07-15 00:41:30 +0000";
layers = (
{
background = {
paths = (
{
closed = 1;
nodes = (
"444 0 LINE SMOOTH",
"463 0 OFFCURVE",
"472 11 OFFCURVE",
"472 21 CURVE SMOOTH",
"472 32 OFFCURVE",
"463 42 OFFCURVE",
"444 42 CURVE SMOOTH",
"126 42 LINE",
"126 615 LINE SMOOTH",
"126 634 OFFCURVE",
"116 643 OFFCURVE",
"105 643 CURVE SMOOTH",
"95 643 OFFCURVE",
"84 634 OFFCURVE",
"84 615 CURVE SMOOTH",
"84 31 LINE SMOOTH",
"84 10.333 OFFCURVE",
"90.333 0 OFFCURVE",
"103 0 CURVE SMOOTH"
);
}
);
};
layerId = "0E6FACCE-B85C-44A4-8B06-9EFDFED90B40";
width = 600;
}
);
unicode = 004C;
},
{
glyphname = M;
lastChange = "2016-07-15 00:41:30 +0000";
layers = (
{
background = {
paths = (
{
closed = 1;
nodes = (
"116 -7 OFFCURVE",
"126 3 OFFCURVE",
"126 23 CURVE SMOOTH",
"126 557 LINE",
"304 285 LINE",
"307 281 OFFCURVE",
"312 279 OFFCURVE",
"317 279 CURVE SMOOTH",
"321 279 OFFCURVE",
"326 281 OFFCURVE",
"329 285 CURVE",
"507 557 LINE",
"507 23 LINE SMOOTH",
"507 3 OFFCURVE",
"518 -7 OFFCURVE",
"528 -7 CURVE SMOOTH",
"539 -7 OFFCURVE",
"549 3 OFFCURVE",
"549 23 CURVE SMOOTH",
"549 612 LINE SMOOTH",
"549 632.667 OFFCURVE",
"542.333 643 OFFCURVE",
"529 643 CURVE SMOOTH",
"519.667 643 OFFCURVE",
"511.333 637.333 OFFCURVE",
"504 626 CURVE SMOOTH",
"316 342 LINE",
"129 626 LINE SMOOTH",
"121.667 637.333 OFFCURVE",
"113 643 OFFCURVE",
"103 643 CURVE SMOOTH",
"90.333 643 OFFCURVE",
"84 632.667 OFFCURVE",
"84 612 CURVE SMOOTH",
"84 23 LINE SMOOTH",
"84 3 OFFCURVE",
"95 -7 OFFCURVE",
"105 -7 CURVE SMOOTH"
);
}
);
};
layerId = "0E6FACCE-B85C-44A4-8B06-9EFDFED90B40";
width = 600;
}
);
unicode = 004D;
},
{
glyphname = N;
lastChange = "2016-07-15 00:41:30 +0000";
layers = (
{
background = {
paths = (
{
closed = 1;
nodes = (
"116 -7 OFFCURVE",
"126 3 OFFCURVE",
"126 23 CURVE SMOOTH",
"126 557 LINE",
"492 0 LINE SMOOTH",
"494.667 -4.667 OFFCURVE",
"500 -7 OFFCURVE",
"508 -7 CURVE SMOOTH",
"521.333 -7 OFFCURVE",
"528 3 OFFCURVE",
"528 23 CURVE SMOOTH",
"528 612 LINE SMOOTH",
"528 633 OFFCURVE",
"518 643 OFFCURVE",
"507 643 CURVE SMOOTH",
"497 643 OFFCURVE",
"486 633 OFFCURVE",
"486 612 CURVE SMOOTH",
"486 84 LINE",
"129 626 LINE SMOOTH",
"121.667 637.333 OFFCURVE",
"113 643 OFFCURVE",
"103 643 CURVE SMOOTH",
"90.333 643 OFFCURVE",
"84 632.667 OFFCURVE",
"84 612 CURVE SMOOTH",
"84 23 LINE SMOOTH",
"84 3 OFFCURVE",
"95 -7 OFFCURVE",
"105 -7 CURVE SMOOTH"
);
}
);
};
layerId = "0E6FACCE-B85C-44A4-8B06-9EFDFED90B40";
width = 600;
}
);
unicode = 004E;
},
{
glyphname = O;
lastChange = "2016-07-15 00:41:30 +0000";
layers = (
{
background = {
paths = (
{
closed = 1;
nodes = (
"416.333 -9 OFFCURVE",
"509 80.333 OFFCURVE",
"509 227 CURVE SMOOTH",
"509 409 LINE SMOOTH",
"509 555.667 OFFCURVE",
"416.333 645 OFFCURVE",
"287 645 CURVE SMOOTH",
"157.667 645 OFFCURVE",
"65 555.667 OFFCURVE",
"65 409 CURVE SMOOTH",
"65 227 LINE SMOOTH",
"65 80.333 OFFCURVE",
"157.667 -9 OFFCURVE",
"287 -9 CURVE SMOOTH"
);
},
{
closed = 1;
nodes = (
"175 33 OFFCURVE",
"107 105.667 OFFCURVE",
"107 227 CURVE SMOOTH",
"107 409 LINE SMOOTH",
"107 530.333 OFFCURVE",
"175 603 OFFCURVE",
"287 603 CURVE SMOOTH",
"399 603 OFFCURVE",
"467 530.333 OFFCURVE",
"467 409 CURVE SMOOTH",
"467 227 LINE SMOOTH",
"467 105.667 OFFCURVE",
"399 33 OFFCURVE",
"287 33 CURVE SMOOTH"
);
}
);
};
layerId = "0E6FACCE-B85C-44A4-8B06-9EFDFED90B40";
width = 600;
}
);
unicode = 004F;
},
{
glyphname = P;
lastChange = "2016-07-15 00:41:30 +0000";
layers = (
{
background = {
paths = (
{
closed = 1;
nodes = (
"116 -7 OFFCURVE",
"126 2 OFFCURVE",
"126 20 CURVE SMOOTH",
"126 337 LINE",
"321 337 LINE SMOOTH",
"431 337 OFFCURVE",
"486 388.667 OFFCURVE",
"486 492 CURVE SMOOTH",
"486 598.667 OFFCURVE",
"416.333 636 OFFCURVE",
"279 636 CURVE SMOOTH",
"103 636 LINE SMOOTH",
"90.333 636 OFFCURVE",
"84 625.667 OFFCURVE",
"84 605 CURVE SMOOTH",
"84 20 LINE SMOOTH",
"84 2 OFFCURVE",
"95 -7 OFFCURVE",
"105 -7 CURVE SMOOTH"
);
},
{
closed = 1;
nodes = (
"126 594 LINE",
"279 594 LINE SMOOTH",
"399 594 OFFCURVE",
"444 574 OFFCURVE",
"444 486 CURVE SMOOTH",
"444 398 OFFCURVE",
"399 379 OFFCURVE",
"279 379 CURVE SMOOTH",
"126 379 LINE"
);
}
);
};
layerId = "0E6FACCE-B85C-44A4-8B06-9EFDFED90B40";
width = 600;
}
);
unicode = 0050;
},
{
glyphname = Q;
lastChange = "2016-07-15 00:41:30 +0000";
layers = (
{
background = {
paths = (
{
closed = 1;
nodes = (
"499 -11 OFFCURVE",
"506 -3 OFFCURVE",
"506 7 CURVE SMOOTH",
"506 14 OFFCURVE",
"503 22 OFFCURVE",
"496 29 CURVE SMOOTH",
"458 67 LINE",
"492 107.667 OFFCURVE",
"509 161 OFFCURVE",
"509 227 CURVE SMOOTH",
"509 409 LINE SMOOTH",
"509 555.667 OFFCURVE",
"416.333 645 OFFCURVE",
"287 645 CURVE SMOOTH",
"157.667 645 OFFCURVE",
"65 555.667 OFFCURVE",
"65 409 CURVE SMOOTH",
"65 227 LINE SMOOTH",
"65 80.333 OFFCURVE",
"160.167 -9 OFFCURVE",
"279.5 -9 CURVE SMOOTH",
"339.167 -9 OFFCURVE",
"389 6.333 OFFCURVE",
"429 37 CURVE",
"466 -1 LINE",
"474 -8 OFFCURVE",
"482 -11 OFFCURVE",
"488 -11 CURVE SMOOTH"
);
},
{
closed = 1;
nodes = (
"228.5 33 OFFCURVE",
"187 50.167 OFFCURVE",
"155 84.5 CURVE SMOOTH",
"123 118.833 OFFCURVE",
"107 166.333 OFFCURVE",
"107 227 CURVE SMOOTH",
"107 409 LINE SMOOTH",
"107 530.333 OFFCURVE",
"175 603 OFFCURVE",
"287 603 CURVE SMOOTH",
"399 603 OFFCURVE",
"467 530.333 OFFCURVE",
"467 409 CURVE SMOOTH",
"467 227 LINE SMOOTH",
"467 172.333 OFFCURVE",
"454.333 128.333 OFFCURVE",
"429 95 CURVE",
"371 154 LINE SMOOTH",
"363 162 OFFCURVE",
"356 165 OFFCURVE",
"349 165 CURVE SMOOTH",
"339 165 OFFCURVE",
"331 156 OFFCURVE",
"331 145 CURVE SMOOTH",
"331 139 OFFCURVE",
"334 131 OFFCURVE",
"341 124 CURVE SMOOTH",
"399 67 LINE",
"370.333 44.333 OFFCURVE",
"330.5 33 OFFCURVE",
"279.5 33 CURVE SMOOTH"
);
}
);
};
layerId = "0E6FACCE-B85C-44A4-8B06-9EFDFED90B40";
width = 600;
}
);
unicode = 0051;
},
{
glyphname = R;
lastChange = "2016-07-15 00:41:30 +0000";
layers = (
{
background = {
paths = (
{
closed = 1;
nodes = (
"116 -7 OFFCURVE",
"126 2 OFFCURVE",
"126 20 CURVE SMOOTH",
"126 337 LINE",
"314 337 LINE",
"342 315 OFFCURVE",
"367.333 278 OFFCURVE",
"390 226 CURVE SMOOTH",
"412.667 174 OFFCURVE",
"428.667 129 OFFCURVE",
"438 91 CURVE SMOOTH",
"447.333 53 OFFCURVE",
"452 30 OFFCURVE",
"452 22 CURVE SMOOTH",
"452 6 OFFCURVE",
"461.333 -5.667 OFFCURVE",
"472 -7 CURVE",
"486.667 -7 OFFCURVE",
"494 2 OFFCURVE",
"494 20 CURVE SMOOTH",
"494 36 OFFCURVE",
"471.833 130.833 OFFCURVE",
"428.5 235.5 CURVE SMOOTH",
"406.833 287.833 OFFCURVE",
"385 322.667 OFFCURVE",
"363 340 CURVE",
"441.667 352 OFFCURVE",
"486 402 OFFCURVE",
"486 486 CURVE SMOOTH",
"486 600.667 OFFCURVE",
"416.333 636 OFFCURVE",
"279 636 CURVE SMOOTH",
"103 636 LINE SMOOTH",
"90.333 636 OFFCURVE",
"84 625.667 OFFCURVE",
"84 605 CURVE SMOOTH",
"84 20 LINE SMOOTH",
"84 2 OFFCURVE",
"95 -7 OFFCURVE",
"105 -7 CURVE SMOOTH"
);
},
{
closed = 1;
nodes = (
"126 594 LINE",
"279 594 LINE SMOOTH",
"399 594 OFFCURVE",
"444 574 OFFCURVE",
"444 486 CURVE SMOOTH",
"444 398 OFFCURVE",
"397.667 380.333 OFFCURVE",
"279 379 CURVE",
"126 379 LINE"
);
}
);
};
layerId = "0E6FACCE-B85C-44A4-8B06-9EFDFED90B40";
width = 600;
}
);
unicode = 0052;
},
{
glyphname = S;
lastChange = "2016-07-15 00:41:30 +0000";
layers = (
{
background = {
paths = (
{
closed = 1;
nodes = (
"347 -8 LINE SMOOTH",
"461.667 -8 OFFCURVE",
"508 66 OFFCURVE",
"508 154 CURVE SMOOTH",
"508 246.667 OFFCURVE",
"467 303.333 OFFCURVE",
"385 324 CURVE",
"168 376 LINE SMOOTH",
"132 385.333 OFFCURVE",
"104 427.833 OFFCURVE",
"104 484.5 CURVE SMOOTH",
"104 541.167 OFFCURVE",
"135.333 602 OFFCURVE",
"206 602 CURVE SMOOTH",
"300 602 LINE SMOOTH",
"412.528 602 OFFCURVE",
"465 593.277 OFFCURVE",
"465 471 CURVE SMOOTH",
"465 452 OFFCURVE",
"476 443 OFFCURVE",
"487 443 CURVE SMOOTH",
"497 443 OFFCURVE",
"508 452 OFFCURVE",
"508 471 CURVE SMOOTH",
"508 543.667 OFFCURVE",
"488.667 591.333 OFFCURVE",
"450 614 CURVE SMOOTH",
"410 638 OFFCURVE",
"369.333 644 OFFCURVE",
"300 644 CURVE SMOOTH",
"224 644 LINE SMOOTH",
"109.333 644 OFFCURVE",
"62 572.167 OFFCURVE",
"62 483.5 CURVE SMOOTH",
"62 394.833 OFFCURVE",
"95.333 350.333 OFFCURVE",
"186 329 CURVE",
"402 276 LINE",
"437 276 OFFCURVE",
"465 216 OFFCURVE",
"465 155 CURVE SMOOTH",
"465 95 OFFCURVE",
"438 35 OFFCURVE",
"364 34 CURVE",
"271 34 LINE SMOOTH",
"145.667 34 OFFCURVE",
"105 52.333 OFFCURVE",
"105 167 CURVE SMOOTH",
"105 185.667 OFFCURVE",
"98.333 195 OFFCURVE",
"85 195 CURVE SMOOTH",
"69.667 195 OFFCURVE",
"62 185.667 OFFCURVE",
"62 167 CURVE SMOOTH",
"62 93.667 OFFCURVE",
"81.333 45.333 OFFCURVE",
"120 22 CURVE SMOOTH",
"160 -2 OFFCURVE",
"201.667 -8 OFFCURVE",
"271 -8 CURVE SMOOTH"
);
}
);
};
layerId = "0E6FACCE-B85C-44A4-8B06-9EFDFED90B40";
width = 600;
}
);
unicode = 0053;
},
{
glyphname = T;
lastChange = "2016-07-15 00:41:30 +0000";
layers = (
{
background = {
paths = (
{
closed = 1;
nodes = (
"241 -7 OFFCURVE",
"251 2 OFFCURVE",
"251 20 CURVE SMOOTH",
"251 594 LINE",
"405 594 LINE SMOOTH",
"424 594 OFFCURVE",
"433 605 OFFCURVE",
"433 615 CURVE SMOOTH",
"433 626 OFFCURVE",
"424 636 OFFCURVE",
"405 636 CURVE SMOOTH",
"54 636 LINE SMOOTH",
"35 636 OFFCURVE",
"26 626 OFFCURVE",
"26 615 CURVE SMOOTH",
"26 605 OFFCURVE",
"35 594 OFFCURVE",
"54 594 CURVE SMOOTH",
"209 594 LINE",
"209 20 LINE SMOOTH",
"209 2 OFFCURVE",
"220 -7 OFFCURVE",
"230 -7 CURVE SMOOTH"
);
}
);
};
layerId = "0E6FACCE-B85C-44A4-8B06-9EFDFED90B40";
width = 600;
}
);
unicode = 0054;
},
{
glyphname = U;
lastChange = "2016-07-15 00:41:30 +0000";
layers = (
{
background = {
paths = (
{
closed = 1;
nodes = (
"428.333 -9 OFFCURVE",
"521 80.333 OFFCURVE",
"521 227 CURVE SMOOTH",
"521 615 LINE SMOOTH",
"521 634 OFFCURVE",
"511 643 OFFCURVE",
"500 643 CURVE SMOOTH",
"490 643 OFFCURVE",
"479 634 OFFCURVE",
"479 615 CURVE SMOOTH",
"479 227 LINE SMOOTH",
"479 105.667 OFFCURVE",
"411 33 OFFCURVE",
"299 33 CURVE SMOOTH",
"187 33 OFFCURVE",
"119 105.667 OFFCURVE",
"119 227 CURVE SMOOTH",
"119 615 LINE SMOOTH",
"119 634 OFFCURVE",
"109 643 OFFCURVE",
"98 643 CURVE SMOOTH",
"88 643 OFFCURVE",
"77 634 OFFCURVE",
"77 615 CURVE SMOOTH",
"77 227 LINE SMOOTH",
"77 80.333 OFFCURVE",
"169.667 -9 OFFCURVE",
"299 -9 CURVE SMOOTH"
);
}
);
};
layerId = "0E6FACCE-B85C-44A4-8B06-9EFDFED90B40";
width = 600;
}
);
unicode = 0055;
},
{
glyphname = V;
lastChange = "2016-07-15 00:41:30 +0000";
layers = (
{
background = {
paths = (
{
closed = 1;
nodes = (
"297 0 LINE",
"522 617 LINE SMOOTH",
"523 621 OFFCURVE",
"524 626 OFFCURVE",
"524 631 CURVE SMOOTH",
"524 642 OFFCURVE",
"519 652 OFFCURVE",
"504 652 CURVE SMOOTH",
"494.667 652 OFFCURVE",
"487.333 645.333 OFFCURVE",
"482 632 CURVE SMOOTH",
"274 60 LINE",
"66 632 LINE",
"60 645.333 OFFCURVE",
"53.333 652 OFFCURVE",
"46 652 CURVE SMOOTH",
"32.667 652 OFFCURVE",
"25 645.333 OFFCURVE",
"23 632 CURVE",
"23 628 OFFCURVE",
"24 623 OFFCURVE",
"26 617 CURVE SMOOTH",
"251 0 LINE"
);
}
);
};
layerId = "0E6FACCE-B85C-44A4-8B06-9EFDFED90B40";
width = 600;
}
);
unicode = 0056;
},
{
glyphname = W;
lastChange = "2016-07-15 00:41:30 +0000";
layers = (
{
background = {
paths = (
{
closed = 1;
nodes = (
"269 0 LINE",
"444 565 LINE",
"620 0 LINE",
"670 0 LINE",
"862 617 LINE",
"865 619 OFFCURVE",
"866 623 OFFCURVE",
"866 627 CURVE SMOOTH",
"866 638 OFFCURVE",
"858 652 OFFCURVE",
"846 652 CURVE SMOOTH",
"839 652 OFFCURVE",
"830 646 OFFCURVE",
"822 632 CURVE",
"646 60 LINE",
"469 630 LINE SMOOTH",
"464 645 OFFCURVE",
"455 652 OFFCURVE",
"445 652 CURVE SMOOTH",
"435 652 OFFCURVE",
"426 645 OFFCURVE",
"421 630 CURVE SMOOTH",
"245 60 LINE",
"67 632 LINE SMOOTH",
"63 645.333 OFFCURVE",
"56.667 652 OFFCURVE",
"48 652 CURVE SMOOTH",
"37.333 652 OFFCURVE",
"24 642 OFFCURVE",
"24 634 CURVE SMOOTH",
"24 628.667 OFFCURVE",
"30.667 621 OFFCURVE",
"32 617 CURVE SMOOTH",
"220 0 LINE"
);
}
);
};
layerId = "0E6FACCE-B85C-44A4-8B06-9EFDFED90B40";
width = 600;
}
);
unicode = 0057;
},
{
glyphname = X;
lastChange = "2016-07-15 00:41:30 +0000";
layers = (
{
background = {
paths = (
{
closed = 1;
nodes = (
"61 -8 OFFCURVE",
"69 -4 OFFCURVE",
"77 7 CURVE",
"268 281 LINE",
"460 7 LINE",
"468 -4 OFFCURVE",
"476 -8 OFFCURVE",
"483 -8 CURVE SMOOTH",
"493 -8 OFFCURVE",
"500 2 OFFCURVE",
"500 14 CURVE SMOOTH",
"500 20 OFFCURVE",
"499 26 OFFCURVE",
"495 32 CURVE",
"294 317 LINE",
"495 604 LINE",
"499 609 OFFCURVE",
"501 615 OFFCURVE",
"501 621 CURVE SMOOTH",
"501 632 OFFCURVE",
"494 643 OFFCURVE",
"483 643 CURVE SMOOTH",
"476 643 OFFCURVE",
"468 639 OFFCURVE",
"460 627 CURVE SMOOTH",
"268 354 LINE",
"77 627 LINE SMOOTH",
"69 639 OFFCURVE",
"61 643 OFFCURVE",
"54 643 CURVE SMOOTH",
"43 643 OFFCURVE",
"36 633 OFFCURVE",
"36 621 CURVE SMOOTH",
"36 615 OFFCURVE",
"38 609 OFFCURVE",
"42 604 CURVE",
"243 317 LINE",
"42 32 LINE",
"38 26 OFFCURVE",
"36 20 OFFCURVE",
"36 14 CURVE SMOOTH",
"36 2 OFFCURVE",
"44 -8 OFFCURVE",
"54 -8 CURVE SMOOTH"
);
}
);
};
layerId = "0E6FACCE-B85C-44A4-8B06-9EFDFED90B40";
width = 600;
}
);
unicode = 0058;
},
{
glyphname = Y;
lastChange = "2016-07-15 00:41:30 +0000";
layers = (
{
background = {
paths = (
{
closed = 1;
nodes = (
"260 -7 OFFCURVE",
"270 2 OFFCURVE",
"270 20 CURVE SMOOTH",
"270 310 LINE",
"475 604 LINE SMOOTH",
"480 610 OFFCURVE",
"482 617 OFFCURVE",
"482 622 CURVE SMOOTH",
"482 633 OFFCURVE",
"474 642 OFFCURVE",
"461 643 CURVE",
"455.667 643 OFFCURVE",
"448.667 637.667 OFFCURVE",
"440 627 CURVE",
"249 354 LINE",
"57 627 LINE SMOOTH",
"49 639 OFFCURVE",
"43 643 OFFCURVE",
"37 643 CURVE SMOOTH",
"32 643 OFFCURVE",
"27 640 OFFCURVE",
"22 636 CURVE",
"18 632 OFFCURVE",
"16 628 OFFCURVE",
"16 622 CURVE SMOOTH",
"16 617 OFFCURVE",
"18 611 OFFCURVE",
"23 604 CURVE SMOOTH",
"229 310 LINE",
"229 20 LINE",
"230 2 OFFCURVE",
"240 -7 OFFCURVE",
"250 -7 CURVE SMOOTH"
);
}
);
};
layerId = "0E6FACCE-B85C-44A4-8B06-9EFDFED90B40";
width = 600;
}
);
unicode = 0059;
},
{
glyphname = Z;
lastChange = "2016-07-15 00:41:30 +0000";
layers = (
{
background = {
paths = (
{
closed = 1;
nodes = (
"459 0 LINE SMOOTH",
"479 0 OFFCURVE",
"489 11 OFFCURVE",
"489 21 CURVE SMOOTH",
"489 32 OFFCURVE",
"479 42 OFFCURVE",
"459 42 CURVE SMOOTH",
"95 42 LINE",
"489 590 LINE",
"489 636 LINE",
"76 636 LINE SMOOTH",
"55 636 OFFCURVE",
"45 626 OFFCURVE",
"45 615 CURVE SMOOTH",
"45 605 OFFCURVE",
"55 594 OFFCURVE",
"76 594 CURVE SMOOTH",
"442 594 LINE",
"46 44 LINE",
"46 0 LINE"
);
}
);
};
layerId = "0E6FACCE-B85C-44A4-8B06-9EFDFED90B40";
width = 600;
}
);
unicode = 005A;
},
{
glyphname = a;
lastChange = "2016-07-15 19:32:55 +0000";
layers = (
{
background = {
paths = (
{
closed = 1;
nodes = (
"494 -7 OFFCURVE",
"504 3 OFFCURVE",
"504 23 CURVE SMOOTH",
"504 337 LINE SMOOTH",
"504 430 OFFCURVE",
"482 461 OFFCURVE",
"409 461 CURVE SMOOTH",
"254 461 LINE SMOOTH",
"165 461 OFFCURVE",
"102 426 OFFCURVE",
"102 354 CURVE SMOOTH",
"102 334 OFFCURVE",
"113 324 OFFCURVE",
"123 324 CURVE SMOOTH",
"134 324 OFFCURVE",
"144 334 OFFCURVE",
"144 354 CURVE SMOOTH",
"144 397 OFFCURVE",
"183 419 OFFCURVE",
"261 419 CURVE SMOOTH",
"402 419 LINE SMOOTH",
"447 419 OFFCURVE",
"462 401 OFFCURVE",
"462 354 CURVE SMOOTH",
"462 290 LINE",
"310 290 LINE SMOOTH",
"257 290 OFFCURVE",
"215 284 OFFCURVE",
"183 272 CURVE SMOOTH",
"129 252 OFFCURVE",
"102 199 OFFCURVE",
"102 114 CURVE SMOOTH",
"102 82 OFFCURVE",
"111 55 OFFCURVE",
"130 32 CURVE SMOOTH",
"149 11 OFFCURVE",
"173 0 OFFCURVE",
"204 0 CURVE SMOOTH",
"297 0 LINE SMOOTH",
"371 0 OFFCURVE",
"426 24 OFFCURVE",
"462 72 CURVE",
"462 23 LINE SMOOTH",
"462 3 OFFCURVE",
"473 -7 OFFCURVE",
"483 -7 CURVE SMOOTH"
);
},
{
closed = 1;
nodes = (
"165 42 OFFCURVE",
"145 86 OFFCURVE",
"145 133 CURVE SMOOTH",
"145 152 OFFCURVE",
"148 170 OFFCURVE",
"154 187 CURVE SMOOTH",
"173 243 OFFCURVE",
"226 248 OFFCURVE",
"310 248 CURVE SMOOTH",
"462 248 LINE",
"462 228 LINE SMOOTH",
"462 108 OFFCURVE",
"402 42 OFFCURVE",
"297 42 CURVE SMOOTH",
"204 42 LINE SMOOTH"
);
}
);
};
hints = (
{
origin = "{0, 1}";
type = Corner;
name = _corner.lc;
},
{
origin = "{0, 3}";
type = Corner;
name = _corner.lc;
},
{
origin = "{0, 6}";
type = Corner;
name = _corner.lc;
}
);
layerId = "0E6FACCE-B85C-44A4-8B06-9EFDFED90B40";
paths = (
{
closed = 1;
nodes = (
"124 403.348 OFFCURVE",
"149.87 423 OFFCURVE",
"231 423 CURVE SMOOTH",
"461 423 LINE",
"461 0 LINE",
"501 0 LINE",
"501 463 LINE",
"231 463 LINE SMOOTH",
"129.162 463 OFFCURVE",
"84 427.879 OFFCURVE",
"84 345 CURVE",
"124 345 LINE"
);
},
{
closed = 1;
nodes = (
"461 89.143 OFFCURVE",
"398.662 29.073 OFFCURVE",
"253.127 30 CURVE SMOOTH",
"158.492 30 OFFCURVE",
"120 60.205 OFFCURVE",
"120 132 CURVE SMOOTH",
"120 211.139 OFFCURVE",
"162.891 245 OFFCURVE",
"266 245 CURVE SMOOTH",
"481 245 LINE",
"481 285 LINE",
"266 285 LINE SMOOTH",
"141.992 285 OFFCURVE",
"80 235.088 OFFCURVE",
"80 132 CURVE SMOOTH",
"80 36.195 OFFCURVE",
"137.604 -10 OFFCURVE",
"253 -10 CURVE SMOOTH",
"420.876 -11.07 OFFCURVE",
"501 66.35 OFFCURVE",
"501 230 CURVE",
"461 230 LINE"
);
}
);
width = 581;
},
{
associatedMasterId = "0E6FACCE-B85C-44A4-8B06-9EFDFED90B40";
background = {
paths = (
{
closed = 1;
nodes = (
"452 -7 OFFCURVE",
"462 3 OFFCURVE",
"462 23 CURVE SMOOTH",
"462 337 LINE SMOOTH",
"462 430.333 OFFCURVE",
"440.333 461 OFFCURVE",
"367 461 CURVE SMOOTH",
"212 461 LINE SMOOTH",
"122.667 461 OFFCURVE",
"60 426 OFFCURVE",
"60 354 CURVE SMOOTH",
"60 334 OFFCURVE",
"71 324 OFFCURVE",
"81 324 CURVE SMOOTH",
"92 324 OFFCURVE",
"102 334 OFFCURVE",
"102 354 CURVE SMOOTH",
"102 397.333 OFFCURVE",
"141 419 OFFCURVE",
"219 419 CURVE SMOOTH",
"360 419 LINE SMOOTH",
"405.333 419 OFFCURVE",
"420 400.667 OFFCURVE",
"420 354 CURVE SMOOTH",
"420 290 LINE",
"268 290 LINE SMOOTH",
"215.333 290 OFFCURVE",
"173 284 OFFCURVE",
"141 272 CURVE SMOOTH",
"87 252 OFFCURVE",
"60 199.333 OFFCURVE",
"60 114 CURVE SMOOTH",
"60 82 OFFCURVE",
"69.333 54.667 OFFCURVE",
"88 32 CURVE SMOOTH",
"106.667 10.667 OFFCURVE",
"131.333 0 OFFCURVE",
"162 0 CURVE SMOOTH",
"255 0 LINE SMOOTH",
"329 0 OFFCURVE",
"384 24 OFFCURVE",
"420 72 CURVE",
"420 23 LINE SMOOTH",
"420 3 OFFCURVE",
"431 -7 OFFCURVE",
"441 -7 CURVE SMOOTH"
);
},
{
closed = 1;
nodes = (
"123 42 OFFCURVE",
"103 86 OFFCURVE",
"103 133 CURVE SMOOTH",
"103 152 OFFCURVE",
"106 170 OFFCURVE",
"111.5 187 CURVE SMOOTH",
"131.338 243.382 OFFCURVE",
"183.796 248 OFFCURVE",
"268 248 CURVE SMOOTH",
"420 248 LINE",
"420 228 LINE SMOOTH",
"420 108 OFFCURVE",
"360.333 42 OFFCURVE",
"255 42 CURVE SMOOTH",
"162 42 LINE SMOOTH"
);
}
);
};
layerId = "10B218E2-C40F-4A90-81B3-DE104A9C37B1";
name = "Regular Jun 28 16, 13:38";
paths = (
{
closed = 0;
nodes = (
"439 0 LINE",
"439 353 LINE",
"439 415 OFFCURVE",
"405 443 OFFCURVE",
"330 443 CURVE",
"209 443 LINE",
"119 443 OFFCURVE",
"78 410 OFFCURVE",
"78 338 CURVE"
);
},
{
closed = 0;
nodes = (
"439 265 LINE",
"244 265 LINE SMOOTH",
"130 265 OFFCURVE",
"78 223 OFFCURVE",
"78 132 CURVE SMOOTH",
"78 48 OFFCURVE",
"126 10 OFFCURVE",
"231 10 CURVE",
"374 9 OFFCURVE",
"439 78 OFFCURVE",
"439 230 CURVE SMOOTH"
);
}
);
width = 600;
},
{
associatedMasterId = "0E6FACCE-B85C-44A4-8B06-9EFDFED90B40";
background = {
paths = (
{
closed = 1;
nodes = (
"494 -7 OFFCURVE",
"504 3 OFFCURVE",
"504 23 CURVE SMOOTH",
"504 337 LINE SMOOTH",
"504 430 OFFCURVE",
"482 461 OFFCURVE",
"409 461 CURVE SMOOTH",
"254 461 LINE SMOOTH",
"165 461 OFFCURVE",
"102 426 OFFCURVE",
"102 354 CURVE SMOOTH",
"102 334 OFFCURVE",
"113 324 OFFCURVE",
"123 324 CURVE SMOOTH",
"134 324 OFFCURVE",
"144 334 OFFCURVE",
"144 354 CURVE SMOOTH",
"144 397 OFFCURVE",
"183 419 OFFCURVE",
"261 419 CURVE SMOOTH",
"402 419 LINE SMOOTH",
"447 419 OFFCURVE",
"462 401 OFFCURVE",
"462 354 CURVE SMOOTH",
"462 290 LINE",
"310 290 LINE SMOOTH",
"257 290 OFFCURVE",
"215 284 OFFCURVE",
"183 272 CURVE SMOOTH",
"129 252 OFFCURVE",
"102 199 OFFCURVE",
"102 114 CURVE SMOOTH",
"102 82 OFFCURVE",
"111 55 OFFCURVE",
"130 32 CURVE SMOOTH",
"149 11 OFFCURVE",
"173 0 OFFCURVE",
"204 0 CURVE SMOOTH",
"297 0 LINE SMOOTH",
"371 0 OFFCURVE",
"426 24 OFFCURVE",
"462 72 CURVE",
"462 23 LINE SMOOTH",
"462 3 OFFCURVE",
"473 -7 OFFCURVE",
"483 -7 CURVE SMOOTH"
);
},
{
closed = 1;
nodes = (
"165 42 OFFCURVE",
"145 86 OFFCURVE",
"145 133 CURVE SMOOTH",
"145 152 OFFCURVE",
"148 170 OFFCURVE",
"154 187 CURVE SMOOTH",
"173 243 OFFCURVE",
"226 248 OFFCURVE",
"310 248 CURVE SMOOTH",
"462 248 LINE",
"462 228 LINE SMOOTH",
"462 108 OFFCURVE",
"402 42 OFFCURVE",
"297 42 CURVE SMOOTH",
"204 42 LINE SMOOTH"
);
}
);
};
layerId = "4D7BC30C-C2DC-4CB0-8179-B30EC7ECEAD3";
name = "Light Jul 14 16, 20:37";
paths = (
{
closed = 0;
nodes = (
"481 0 LINE",
"481 441 LINE",
"104 441 LINE",
"104 345 LINE"
);
},
{
closed = 0;
nodes = (
"481 265 LINE",
"266 265 LINE SMOOTH",
"152 265 OFFCURVE",
"100 223 OFFCURVE",
"100 132 CURVE",
"101 20 LINE",
"253 20 LINE",
"410 19 OFFCURVE",
"481 85 OFFCURVE",
"481 230 CURVE SMOOTH"
);
}
);
width = 581;
}
);
unicode = 0061;
},
{
glyphname = b;
lastChange = "2016-07-15 00:41:30 +0000";
layers = (
{
background = {
paths = (
{
closed = 1;
nodes = (
"106 -7 OFFCURVE",
"116 3 OFFCURVE",
"116 23 CURVE SMOOTH",
"116 72 LINE",
"153.333 24 OFFCURVE",
"208.667 0 OFFCURVE",
"282 0 CURVE SMOOTH",
"311 0 LINE SMOOTH",
"451 0 OFFCURVE",
"518 35 OFFCURVE",
"518 175 CURVE SMOOTH",
"518 286 LINE SMOOTH",
"518 426 OFFCURVE",
"451 461 OFFCURVE",
"311 461 CURVE SMOOTH",
"282 461 LINE SMOOTH",
"208.667 461 OFFCURVE",
"153.333 437 OFFCURVE",
"116 389 CURVE",
"116 612 LINE SMOOTH",
"116 632.667 OFFCURVE",
"108.333 643 OFFCURVE",
"93 643 CURVE SMOOTH",
"80.333 643 OFFCURVE",
"74 632.667 OFFCURVE",
"74 612 CURVE SMOOTH",
"74 23 LINE SMOOTH",
"74 3 OFFCURVE",
"85 -7 OFFCURVE",
"95 -7 CURVE SMOOTH"
);
},
{
closed = 1;
nodes = (
"175.333 42 OFFCURVE",
"116 108 OFFCURVE",
"116 228 CURVE SMOOTH",
"116 232 LINE SMOOTH",
"116 352 OFFCURVE",
"175.333 419 OFFCURVE",
"282 419 CURVE SMOOTH",
"311 419 LINE SMOOTH",
"422.143 419 OFFCURVE",
"476 408.017 OFFCURVE",
"476 286 CURVE SMOOTH",
"476 175 LINE SMOOTH",
"476 52.983 OFFCURVE",
"422.143 42 OFFCURVE",
"311 42 CURVE SMOOTH",
"282 42 LINE SMOOTH"
);
}
);
};
components = (
{
name = d;
transform = "{-1, 0, 0, 1, 594, 0}";
}
);
layerId = "0E6FACCE-B85C-44A4-8B06-9EFDFED90B40";
width = 594;
}
);
unicode = 0062;
},
{
glyphname = c;
lastChange = "2016-07-15 00:41:30 +0000";
layers = (
{
background = {
paths = (
{
closed = 1;
nodes = (
"411 0 LINE SMOOTH",
"495 0 OFFCURVE",
"506 48.667 OFFCURVE",
"506 110 CURVE SMOOTH",
"506 127.333 OFFCURVE",
"499 136.333 OFFCURVE",
"485 137 CURVE",
"471 137 OFFCURVE",
"464 126.167 OFFCURVE",
"464 104.5 CURVE SMOOTH",
"464 82.833 OFFCURVE",
"459.667 67 OFFCURVE",
"451 57 CURVE SMOOTH",
"442.333 47 OFFCURVE",
"426.667 42 OFFCURVE",
"404 42 CURVE SMOOTH",
"270 42 LINE SMOOTH",
"157.186 42 OFFCURVE",
"104 52.983 OFFCURVE",
"104 175 CURVE SMOOTH",
"104 286 LINE SMOOTH",
"104 408.017 OFFCURVE",
"157.186 419 OFFCURVE",
"270 419 CURVE SMOOTH",
"404 419 LINE SMOOTH",
"449.333 419 OFFCURVE",
"464 398.667 OFFCURVE",
"464 356 CURVE SMOOTH",
"464 334.667 OFFCURVE",
"471 324 OFFCURVE",
"485 324 CURVE SMOOTH",
"499 324 OFFCURVE",
"506 340 OFFCURVE",
"506 362 CURVE SMOOTH",
"506 383 OFFCURVE",
"500 408 OFFCURVE",
"490 429 CURVE SMOOTH",
"480 450.333 OFFCURVE",
"455 461 OFFCURVE",
"415 461 CURVE",
"413.667 461 OFFCURVE",
"412.333 461 OFFCURVE",
"411 461 CURVE",
"270 461 LINE SMOOTH",
"128.667 461 OFFCURVE",
"62 426 OFFCURVE",
"62 286 CURVE SMOOTH",
"62 175 LINE SMOOTH",
"62 35 OFFCURVE",
"128.667 0 OFFCURVE",
"270 0 CURVE SMOOTH"
);
}
);
};
layerId = "0E6FACCE-B85C-44A4-8B06-9EFDFED90B40";
paths = (
{
closed = 1;
nodes = (
"376 0 LINE SMOOTH",
"470.08 0 OFFCURVE",
"519 38.931 OFFCURVE",
"519 117 CURVE SMOOTH",
"519 128.046 OFFCURVE",
"510.046 137 OFFCURVE",
"499 137 CURVE SMOOTH",
"487.954 137 OFFCURVE",
"479 128.046 OFFCURVE",
"479 117 CURVE SMOOTH",
"479 62.989 OFFCURVE",
"449.235 40 OFFCURVE",
"376 40 CURVE SMOOTH",
"243 40 LINE SMOOTH",
"152.436 40 OFFCURVE",
"120 77.09 OFFCURVE",
"120 182 CURVE SMOOTH",
"120 324 LINE SMOOTH",
"120 392.172 OFFCURVE",
"172.064 423 OFFCURVE",
"300 423 CURVE SMOOTH",
"426.225 423 OFFCURVE",
"479 393.954 OFFCURVE",
"479 331 CURVE SMOOTH",
"479 319.954 OFFCURVE",
"487.954 311 OFFCURVE",
"499 311 CURVE SMOOTH",
"510.046 311 OFFCURVE",
"519 319.954 OFFCURVE",
"519 331 CURVE SMOOTH",
"519 420.953 OFFCURVE",
"446.578 463 OFFCURVE",
"300 463 CURVE SMOOTH",
"152.479 463 OFFCURVE",
"80 418.741 OFFCURVE",
"80 324 CURVE SMOOTH",
"80 182 LINE SMOOTH",
"80 55.263 OFFCURVE",
"129.177 0 OFFCURVE",
"243 0 CURVE SMOOTH"
);
}
);
width = 549;
}
);
unicode = 0063;
},
{
glyphname = d;
lastChange = "2016-07-15 00:41:30 +0000";
layers = (
{
background = {
paths = (
{
closed = 1;
nodes = (
"496 -7 OFFCURVE",
"506 3 OFFCURVE",
"506 23 CURVE SMOOTH",
"506 612 LINE SMOOTH",
"506 632.667 OFFCURVE",
"499.667 643 OFFCURVE",
"487 643 CURVE SMOOTH",
"471.667 643 OFFCURVE",
"464 632.667 OFFCURVE",
"464 612 CURVE SMOOTH",
"464 461 LINE",
"270 461 LINE SMOOTH",
"128.667 461 OFFCURVE",
"62 426 OFFCURVE",
"62 286 CURVE SMOOTH",
"62 175 LINE SMOOTH",
"62 35 OFFCURVE",
"128.667 0 OFFCURVE",
"270 0 CURVE SMOOTH",
"299 0 LINE SMOOTH",
"373 0 OFFCURVE",
"428 24 OFFCURVE",
"464 72 CURVE",
"464 23 LINE SMOOTH",
"464 3 OFFCURVE",
"475 -7 OFFCURVE",
"485 -7 CURVE SMOOTH"
);
},
{
closed = 1;
nodes = (
"157.186 42 OFFCURVE",
"104 52.983 OFFCURVE",
"104 175 CURVE SMOOTH",
"104 286 LINE SMOOTH",
"104 408.017 OFFCURVE",
"157.186 419 OFFCURVE",
"270 419 CURVE SMOOTH",
"464 419 LINE",
"464 228 LINE SMOOTH",
"464 108 OFFCURVE",
"404.333 42 OFFCURVE",
"299 42 CURVE SMOOTH",
"270 42 LINE SMOOTH"
);
}
);
};
components = (
{
name = q;
transform = "{1, 0, 0, -1, 0, 461}";
}
);
layerId = "0E6FACCE-B85C-44A4-8B06-9EFDFED90B40";
width = 594;
}
);
unicode = 0064;
},
{
glyphname = e;
lastChange = "2016-07-15 18:29:03 +0000";
layers = (
{
background = {
paths = (
{
closed = 0;
nodes = (
"472 231 LINE",
"179 231 LINE",
"127 231 OFFCURVE",
"92 220 OFFCURVE",
"92 175 CURVE SMOOTH",
"92 111 LINE",
"92 59 OFFCURVE",
"119 20 OFFCURVE",
"194 20 CURVE SMOOTH",
"362 21 LINE SMOOTH",
"441 21 OFFCURVE",
"472 54 OFFCURVE",
"472 118 CURVE SMOOTH",
"472 330 LINE",
"472 421 OFFCURVE",
"437 442 OFFCURVE",
"361 442 CURVE",
"208 442 LINE",
"124 442 OFFCURVE",
"90 412 OFFCURVE",
"90 345 CURVE"
);
}
);
};
guideLines = (
{
angle = 90;
position = "{368, 307}";
},
{
angle = 90;
position = "{201, 307}";
},
{
angle = 90;
position = "{470, 307}";
}
);
hints = (
{
origin = "{0, 8}";
type = Corner;
name = _corner.lc;
},
{
origin = "{0, 9}";
type = Corner;
name = _corner.lc;
},
{
origin = "{0, 10}";
type = Corner;
name = _corner.lc;
},
{
origin = "{0, 7}";
type = Corner;
name = _corner.lc;
},
{
origin = "{0, 6}";
type = Corner;
name = _corner.lc;
}
);
layerId = "0E6FACCE-B85C-44A4-8B06-9EFDFED90B40";
paths = (
{
closed = 1;
nodes = (
"469.899 0 LINE SMOOTH",
"482.853 0 OFFCURVE",
"489.867 6.942 OFFCURVE",
"490 19.895 CURVE SMOOTH",
"490.999 116.794 LINE SMOOTH",
"491 128.046 OFFCURVE",
"482.046 137 OFFCURVE",
"471 137 CURVE SMOOTH",
"460.023 137 OFFCURVE",
"451.112 128.157 OFFCURVE",
"451.001 117.206 CURVE SMOOTH",
"450.205 40 LINE",
"110 40 LINE",
"110 211 LINE",
"470 211 LINE SMOOTH",
"483 211 OFFCURVE",
"490 218 OFFCURVE",
"490 231 CURVE SMOOTH",
"490 441 LINE SMOOTH",
"490 454 OFFCURVE",
"483 461 OFFCURVE",
"470 461 CURVE SMOOTH",
"70 461 LINE",
"70 20 LINE SMOOTH",
"70 7 OFFCURVE",
"77 0 OFFCURVE",
"90 0 CURVE SMOOTH"
);
},
{
closed = 1;
nodes = (
"110 421 LINE",
"450 421 LINE",
"450 251 LINE",
"110 251 LINE"
);
}
);
width = 561;
}
);
leftMetricsKey = o;
rightMetricsKey = o;
unicode = 0065;
},
{
glyphname = f;
lastChange = "2016-07-15 00:41:30 +0000";
layers = (
{
background = {
paths = (
{
closed = 1;
nodes = (
"133 -7 OFFCURVE",
"141 3 OFFCURVE",
"141 24 CURVE SMOOTH",
"141 419 LINE",
"284 419 LINE SMOOTH",
"305 419 OFFCURVE",
"315 425 OFFCURVE",
"315 438 CURVE SMOOTH",
"315 453 OFFCURVE",
"305 461 OFFCURVE",
"284 461 CURVE SMOOTH",
"141 461 LINE",
"141 583 OFFCURVE",
"194 594 OFFCURVE",
"307 594 CURVE SMOOTH",
"328 594 OFFCURVE",
"338 600 OFFCURVE",
"338 613 CURVE SMOOTH",
"338 628 OFFCURVE",
"328 636 OFFCURVE",
"307 636 CURVE SMOOTH",
"238 636 OFFCURVE",
"197 630 OFFCURVE",
"157 606 CURVE SMOOTH",
"118 583 OFFCURVE",
"99 534 OFFCURVE",
"99 461 CURVE",
"78 461 OFFCURVE",
"68 451 OFFCURVE",
"68 440 CURVE SMOOTH",
"68 430 OFFCURVE",
"78 419 OFFCURVE",
"99 419 CURVE",
"99 24 LINE SMOOTH",
"99 3 OFFCURVE",
"105 -7 OFFCURVE",
"118 -7 CURVE SMOOTH"
);
}
);
};
layerId = "0E6FACCE-B85C-44A4-8B06-9EFDFED90B40";
paths = (
{
closed = 1;
nodes = (
"131.046 -20 OFFCURVE",
"140 -11.046 OFFCURVE",
"140 0 CURVE SMOOTH",
"140 421 LINE",
"312 421 LINE SMOOTH",
"323.046 421 OFFCURVE",
"332 429.954 OFFCURVE",
"332 441 CURVE SMOOTH",
"332 452.046 OFFCURVE",
"323.046 461 OFFCURVE",
"312 461 CURVE SMOOTH",
"140 461 LINE",
"140 462 LINE SMOOTH",
"140 556.827 OFFCURVE",
"194.663 598 OFFCURVE",
"324 598 CURVE SMOOTH",
"335.046 598 OFFCURVE",
"344 606.954 OFFCURVE",
"344 618 CURVE SMOOTH",
"344 629.046 OFFCURVE",
"335.046 638 OFFCURVE",
"324 638 CURVE SMOOTH",
"173.886 638 OFFCURVE",
"100 581.114 OFFCURVE",
"100 462 CURVE SMOOTH",
"100 461 LINE",
"45 461 LINE SMOOTH",
"33.954 461 OFFCURVE",
"25 452.046 OFFCURVE",
"25 441 CURVE SMOOTH",
"25 429.954 OFFCURVE",
"33.954 421 OFFCURVE",
"45 421 CURVE SMOOTH",
"100 421 LINE",
"100 0 LINE SMOOTH",
"100 -11.046 OFFCURVE",
"108.954 -20 OFFCURVE",
"120 -20 CURVE SMOOTH"
);
}
);
width = 349;
}
);
unicode = 0066;
},
{
glyphname = g;
lastChange = "2016-07-15 00:41:30 +0000";
layers = (
{
background = {
paths = (
{
closed = 1;
nodes = (
"154.333 -205 OFFCURVE",
"155.667 -205 OFFCURVE",
"157 -205 CURVE",
"420 -205 LINE SMOOTH",
"486.667 -205 OFFCURVE",
"506 -177.333 OFFCURVE",
"506 -92 CURVE SMOOTH",
"506 438 LINE SMOOTH",
"506 458 OFFCURVE",
"496 468 OFFCURVE",
"485 468 CURVE SMOOTH",
"475 468 OFFCURVE",
"464 458 OFFCURVE",
"464 438 CURVE SMOOTH",
"464 389 LINE",
"428 437 OFFCURVE",
"373 461 OFFCURVE",
"299 461 CURVE SMOOTH",
"270 461 LINE SMOOTH",
"128.667 461 OFFCURVE",
"62 426 OFFCURVE",
"62 286 CURVE SMOOTH",
"62 175 LINE SMOOTH",
"62 35 OFFCURVE",
"128.667 0 OFFCURVE",
"270 0 CURVE SMOOTH",
"411 0 LINE SMOOTH",
"433.667 0 OFFCURVE",
"451.333 3 OFFCURVE",
"464 9 CURVE",
"464 -108 LINE SMOOTH",
"464 -150.667 OFFCURVE",
"454.333 -163 OFFCURVE",
"413 -163 CURVE SMOOTH",
"164 -163 LINE SMOOTH",
"118.667 -163 OFFCURVE",
"104 -142.667 OFFCURVE",
"104 -100 CURVE SMOOTH",
"104 -78.667 OFFCURVE",
"97 -68 OFFCURVE",
"83 -68 CURVE SMOOTH",
"69 -68 OFFCURVE",
"62 -84 OFFCURVE",
"62 -106 CURVE SMOOTH",
"62 -127 OFFCURVE",
"68 -152 OFFCURVE",
"78 -173 CURVE SMOOTH",
"88 -194.333 OFFCURVE",
"113 -205 OFFCURVE",
"153 -205 CURVE"
);
},
{
closed = 1;
nodes = (
"157.186 42 OFFCURVE",
"104 52.983 OFFCURVE",
"104 175 CURVE SMOOTH",
"104 286 LINE SMOOTH",
"104 408.017 OFFCURVE",
"157.186 419 OFFCURVE",
"270 419 CURVE SMOOTH",
"299 419 LINE SMOOTH",
"404.333 419 OFFCURVE",
"464 352 OFFCURVE",
"464 232 CURVE SMOOTH",
"464 106 LINE SMOOTH",
"464 59.333 OFFCURVE",
"449.333 42 OFFCURVE",
"404 42 CURVE SMOOTH",
"270 42 LINE SMOOTH"
);
}
);
};
layerId = "0E6FACCE-B85C-44A4-8B06-9EFDFED90B40";
paths = (
{
closed = 1;
nodes = (
"438 -202 LINE SMOOTH",
"496.345 -202 OFFCURVE",
"527 -170.595 OFFCURVE",
"527 -111 CURVE SMOOTH",
"527 445 LINE SMOOTH",
"527 456.046 OFFCURVE",
"518.046 465 OFFCURVE",
"507 465 CURVE SMOOTH",
"495.954 465 OFFCURVE",
"487 456.046 OFFCURVE",
"487 445 CURVE SMOOTH",
"487 395.51 LINE",
"449.526 439.473 OFFCURVE",
"385.64 461 OFFCURVE",
"295 461 CURVE SMOOTH",
"153.206 461 OFFCURVE",
"83 412.68 OFFCURVE",
"83 311 CURVE SMOOTH",
"83 150 LINE SMOOTH",
"83 48.32 OFFCURVE",
"153.206 0 OFFCURVE",
"295 0 CURVE SMOOTH",
"385.64 0 OFFCURVE",
"449.526 21.527 OFFCURVE",
"487 65.49 CURVE",
"487 -111 LINE SMOOTH",
"487 -148.569 OFFCURVE",
"473.983 -162 OFFCURVE",
"438 -162 CURVE SMOOTH",
"186 -162 LINE SMOOTH",
"146.247 -162 OFFCURVE",
"130 -140.51 OFFCURVE",
"130 -84 CURVE SMOOTH",
"130 -72.954 OFFCURVE",
"121.046 -64 OFFCURVE",
"110 -64 CURVE SMOOTH",
"98.954 -64 OFFCURVE",
"90 -72.954 OFFCURVE",
"90 -84 CURVE SMOOTH",
"90 -161.27 OFFCURVE",
"122.028 -202 OFFCURVE",
"186 -202 CURVE SMOOTH"
);
},
{
closed = 1;
nodes = (
"173.737 40 OFFCURVE",
"123 73.51 OFFCURVE",
"123 150 CURVE SMOOTH",
"123 311 LINE SMOOTH",
"123 387.49 OFFCURVE",
"173.737 421 OFFCURVE",
"295 421 CURVE SMOOTH",
"429.231 421 OFFCURVE",
"487 374.079 OFFCURVE",
"487 267 CURVE SMOOTH",
"487 194 LINE SMOOTH",
"487 86.921 OFFCURVE",
"429.231 40 OFFCURVE",
"295 40 CURVE SMOOTH"
);
}
);
width = 600;
}
);
unicode = 0067;
},
{
glyphname = h;
lastChange = "2016-07-15 00:41:30 +0000";
layers = (
{
background = {
paths = (
{
closed = 0;
nodes = (
"100 643 LINE",
"100 16 LINE"
);
},
{
closed = 0;
nodes = (
"484 16 LINE",
"484 311 LINE",
"484 400 OFFCURVE",
"427 441 OFFCURVE",
"302 441 CURVE SMOOTH",
"163 441 OFFCURVE",
"100 386 OFFCURVE",
"100 267 CURVE"
);
}
);
};
layerId = "0E6FACCE-B85C-44A4-8B06-9EFDFED90B40";
paths = (
{
closed = 1;
nodes = (
"111.046 -4 OFFCURVE",
"120 4.954 OFFCURVE",
"120 16 CURVE SMOOTH",
"120 267 LINE SMOOTH",
"120 374.617 OFFCURVE",
"174.279 421 OFFCURVE",
"302 421 CURVE SMOOTH",
"416.292 421 OFFCURVE",
"464 387.66 OFFCURVE",
"464 311 CURVE SMOOTH",
"464 16 LINE SMOOTH",
"464 4.954 OFFCURVE",
"472.954 -4 OFFCURVE",
"484 -4 CURVE SMOOTH",
"495.046 -4 OFFCURVE",
"504 4.954 OFFCURVE",
"504 16 CURVE SMOOTH",
"504 311 LINE SMOOTH",
"504 412.447 OFFCURVE",
"436.903 461 OFFCURVE",
"302 461 CURVE SMOOTH",
"216.53 461 OFFCURVE",
"156.032 440.261 OFFCURVE",
"120 397.8 CURVE",
"120 643 LINE SMOOTH",
"120 654.046 OFFCURVE",
"111.046 663 OFFCURVE",
"100 663 CURVE SMOOTH",
"88.954 663 OFFCURVE",
"80 654.046 OFFCURVE",
"80 643 CURVE SMOOTH",
"80 16 LINE SMOOTH",
"80 4.954 OFFCURVE",
"88.954 -4 OFFCURVE",
"100 -4 CURVE SMOOTH"
);
}
);
width = 584;
}
);
leftMetricsKey = n;
rightMetricsKey = n;
unicode = 0068;
},
{
glyphname = i;
lastChange = "2016-07-15 00:41:30 +0000";
layers = (
{
background = {
paths = (
{
closed = 1;
nodes = (
"137 -7 OFFCURVE",
"147 2 OFFCURVE",
"147 20 CURVE SMOOTH",
"147 440 LINE SMOOTH",
"147 459 OFFCURVE",
"137 468 OFFCURVE",
"126 468 CURVE SMOOTH",
"116 468 OFFCURVE",
"105 459 OFFCURVE",
"105 440 CURVE SMOOTH",
"105 20 LINE SMOOTH",
"105 2 OFFCURVE",
"116 -7 OFFCURVE",
"126 -7 CURVE SMOOTH"
);
},
{
closed = 1;
nodes = (
"149 566 OFFCURVE",
"172 578 OFFCURVE",
"172 601 CURVE SMOOTH",
"172 624 OFFCURVE",
"150 636 OFFCURVE",
"128 636 CURVE SMOOTH",
"105 636 OFFCURVE",
"82 624 OFFCURVE",
"80 601 CURVE",
"80 578 OFFCURVE",
"103 566 OFFCURVE",
"126 566 CURVE SMOOTH"
);
}
);
};
layerId = "0E6FACCE-B85C-44A4-8B06-9EFDFED90B40";
paths = (
{
closed = 1;
nodes = (
"135.046 -4 OFFCURVE",
"144 4.954 OFFCURVE",
"144 16 CURVE SMOOTH",
"144 461 LINE SMOOTH",
"144 472.046 OFFCURVE",
"135.046 481 OFFCURVE",
"124 481 CURVE SMOOTH",
"112.954 481 OFFCURVE",
"104 472.046 OFFCURVE",
"104 461 CURVE SMOOTH",
"104 16 LINE SMOOTH",
"104 4.954 OFFCURVE",
"112.954 -4 OFFCURVE",
"124 -4 CURVE SMOOTH"
);
},
{
closed = 1;
nodes = (
"149.646 567 OFFCURVE",
"169 581.309 OFFCURVE",
"169 601 CURVE SMOOTH",
"169 620.691 OFFCURVE",
"149.646 635 OFFCURVE",
"125 635 CURVE SMOOTH",
"99.564 635 OFFCURVE",
"80 620.912 OFFCURVE",
"80 601 CURVE SMOOTH",
"80 581.088 OFFCURVE",
"99.564 567 OFFCURVE",
"125 567 CURVE SMOOTH"
);
}
);
width = 249;
}
);
unicode = 0069;
},
{
glyphname = j;
lastChange = "2016-07-15 00:41:30 +0000";
layers = (
{
background = {
paths = (
{
closed = 1;
nodes = (
"-20 -175 OFFCURVE",
"21 -170 OFFCURVE",
"61 -146 CURVE SMOOTH",
"100 -123 OFFCURVE",
"119 -75 OFFCURVE",
"119 0 CURVE SMOOTH",
"119 437 LINE SMOOTH",
"119 458 OFFCURVE",
"109 468 OFFCURVE",
"98 468 CURVE SMOOTH",
"88 468 OFFCURVE",
"77 458 OFFCURVE",
"77 437 CURVE SMOOTH",
"77 0 LINE SMOOTH",
"77 -122 OFFCURVE",
"24 -133 OFFCURVE",
"-89 -133 CURVE SMOOTH",
"-110 -133 OFFCURVE",
"-120 -144 OFFCURVE",
"-120 -154 CURVE SMOOTH",
"-120 -165 OFFCURVE",
"-110 -175 OFFCURVE",
"-89 -175 CURVE SMOOTH"
);
},
{
closed = 1;
nodes = (
"120 565 OFFCURVE",
"144 583 OFFCURVE",
"144 603 CURVE SMOOTH",
"144 611 OFFCURVE",
"140 619 OFFCURVE",
"129 626 CURVE",
"121 634 OFFCURVE",
"111 637 OFFCURVE",
"101 637 CURVE SMOOTH",
"77 637 OFFCURVE",
"52 619 OFFCURVE",
"52 599 CURVE SMOOTH",
"52 591 OFFCURVE",
"56 583 OFFCURVE",
"68 576 CURVE",
"76 568 OFFCURVE",
"86 565 OFFCURVE",
"96 565 CURVE SMOOTH"
);
}
);
};
layerId = "0E6FACCE-B85C-44A4-8B06-9EFDFED90B40";
paths = (
{
closed = 1;
nodes = (
"66.732 -173 OFFCURVE",
"118 -110.417 OFFCURVE",
"118 16 CURVE SMOOTH",
"118 461 LINE SMOOTH",
"118 472.046 OFFCURVE",
"109.046 481 OFFCURVE",
"98 481 CURVE SMOOTH",
"86.954 481 OFFCURVE",
"78 472.046 OFFCURVE",
"78 461 CURVE SMOOTH",
"78 16 LINE SMOOTH",
"78 -89.445 OFFCURVE",
"42.894 -133 OFFCURVE",
"-40 -133 CURVE SMOOTH",
"-51.046 -133 OFFCURVE",
"-60 -141.954 OFFCURVE",
"-60 -153 CURVE SMOOTH",
"-60 -164.046 OFFCURVE",
"-51.046 -173 OFFCURVE",
"-40 -173 CURVE SMOOTH"
);
},
{
closed = 1;
nodes = (
"126.558 567 OFFCURVE",
"143 579.065 OFFCURVE",
"143 601 CURVE SMOOTH",
"143 622.935 OFFCURVE",
"126.558 635 OFFCURVE",
"99 635 CURVE SMOOTH",
"70.616 635 OFFCURVE",
"54 623.134 OFFCURVE",
"54 601 CURVE SMOOTH",
"54 578.866 OFFCURVE",
"70.616 567 OFFCURVE",
"99 567 CURVE SMOOTH"
);
}
);
width = 223;
}
);
unicode = 006A;
},
{
glyphname = k;
lastChange = "2016-07-15 00:41:30 +0000";
layers = (
{
background = {
paths = (
{
closed = 1;
nodes = (
"113 -7 OFFCURVE",
"123 2 OFFCURVE",
"123 20 CURVE SMOOTH",
"123 203 LINE",
"157 237 LINE",
"388 5 LINE SMOOTH",
"395 -2 OFFCURVE",
"403 -5 OFFCURVE",
"409 -5 CURVE SMOOTH",
"420 -5 OFFCURVE",
"428 3 OFFCURVE",
"428 14 CURVE SMOOTH",
"428 21 OFFCURVE",
"425 28 OFFCURVE",
"418 35 CURVE SMOOTH",
"186 266 LINE",
"345 425 LINE SMOOTH",
"353 433 OFFCURVE",
"356 441 OFFCURVE",
"356 447 CURVE SMOOTH",
"356 458 OFFCURVE",
"348 465 OFFCURVE",
"338 465 CURVE SMOOTH",
"331 465 OFFCURVE",
"323 462 OFFCURVE",
"315 455 CURVE",
"123 262 LINE",
"123 615 LINE SMOOTH",
"123 634 OFFCURVE",
"113 643 OFFCURVE",
"102 643 CURVE SMOOTH",
"92 643 OFFCURVE",
"81 634 OFFCURVE",
"81 615 CURVE SMOOTH",
"81 20 LINE SMOOTH",
"81 2 OFFCURVE",
"92 -7 OFFCURVE",
"102 -7 CURVE SMOOTH"
);
}
);
};
layerId = "0E6FACCE-B85C-44A4-8B06-9EFDFED90B40";
paths = (
{
closed = 1;
nodes = (
"111.046 -20 OFFCURVE",
"120 -11.046 OFFCURVE",
"120 0 CURVE SMOOTH",
"120 186.777 LINE",
"185 242.266 LINE",
"365.598 -9.448 LINE SMOOTH",
"369.214 -14.618 OFFCURVE",
"375.212 -18 OFFCURVE",
"382 -18 CURVE SMOOTH",
"393.046 -18 OFFCURVE",
"402 -9.046 OFFCURVE",
"402 2 CURVE SMOOTH",
"402 6.432 OFFCURVE",
"400.558 10.527 OFFCURVE",
"398.119 13.842 CURVE SMOOTH",
"215.532 268.329 LINE",
"399.856 425.679 LINE SMOOTH",
"404.224 429.348 OFFCURVE",
"407 434.849 OFFCURVE",
"407 441 CURVE SMOOTH",
"407 452.046 OFFCURVE",
"398.046 461 OFFCURVE",
"387 461 CURVE SMOOTH",
"381.984 461 OFFCURVE",
"377.4 459.154 OFFCURVE",
"373.889 456.103 CURVE SMOOTH",
"120 239.369 LINE",
"120 643 LINE SMOOTH",
"120 654.046 OFFCURVE",
"111.046 663 OFFCURVE",
"100 663 CURVE SMOOTH",
"88.954 663 OFFCURVE",
"80 654.046 OFFCURVE",
"80 643 CURVE SMOOTH",
"80 0 LINE SMOOTH",
"80 -11.046 OFFCURVE",
"88.954 -20 OFFCURVE",
"100 -20 CURVE SMOOTH"
);
}
);
width = 457;
}
);
leftMetricsKey = h;
unicode = 006B;
},
{
glyphname = l;
lastChange = "2016-07-15 00:41:30 +0000";
layers = (
{
background = {
paths = (
{
closed = 1;
nodes = (
"192 0 LINE SMOOTH",
"212 0 OFFCURVE",
"222 10 OFFCURVE",
"222 21 CURVE SMOOTH",
"222 31 OFFCURVE",
"212 42 OFFCURVE",
"190 42 CURVE SMOOTH",
"147.333 42 OFFCURVE",
"132 59.333 OFFCURVE",
"132 106 CURVE SMOOTH",
"132 613 LINE SMOOTH",
"132 633 OFFCURVE",
"122 643 OFFCURVE",
"111 643 CURVE SMOOTH",
"101 643 OFFCURVE",
"90 633 OFFCURVE",
"90 613 CURVE SMOOTH",
"90 124 LINE SMOOTH",
"90 30.667 OFFCURVE",
"111.667 0 OFFCURVE",
"185 0 CURVE SMOOTH"
);
}
);
};
layerId = "0E6FACCE-B85C-44A4-8B06-9EFDFED90B40";
paths = (
{
closed = 1;
nodes = (
"225.046 -5 OFFCURVE",
"234 3.954 OFFCURVE",
"234 15 CURVE SMOOTH",
"234 26.046 OFFCURVE",
"225.046 35 OFFCURVE",
"214 35 CURVE SMOOTH",
"146.085 35 OFFCURVE",
"120 49.72 OFFCURVE",
"120 81 CURVE SMOOTH",
"120 643 LINE SMOOTH",
"120 654.046 OFFCURVE",
"111.046 663 OFFCURVE",
"100 663 CURVE SMOOTH",
"88.954 663 OFFCURVE",
"80 654.046 OFFCURVE",
"80 643 CURVE SMOOTH",
"80 81 LINE SMOOTH",
"80 22.955 OFFCURVE",
"125.928 -5 OFFCURVE",
"214 -5 CURVE SMOOTH"
);
}
);
width = 264;
}
);
unicode = 006C;
},
{
glyphname = m;
lastChange = "2016-07-15 00:41:30 +0000";
layers = (
{
background = {
paths = (
{
closed = 1;
nodes = (
"113 -7 OFFCURVE",
"123 3 OFFCURVE",
"123 23 CURVE SMOOTH",
"123 232 LINE SMOOTH",
"123 352 OFFCURVE",
"173 419 OFFCURVE",
"258 419 CURVE SMOOTH",
"352 419 OFFCURVE",
"393 408 OFFCURVE",
"393 286 CURVE SMOOTH",
"393 23 LINE SMOOTH",
"393 3 OFFCURVE",
"404 -7 OFFCURVE",
"414 -7 CURVE SMOOTH",
"425 -7 OFFCURVE",
"435 3 OFFCURVE",
"435 23 CURVE SMOOTH",
"435 232 LINE SMOOTH",
"435 352 OFFCURVE",
"485 419 OFFCURVE",
"570 419 CURVE SMOOTH",
"666 419 OFFCURVE",
"706 408 OFFCURVE",
"706 286 CURVE SMOOTH",
"706 23 LINE SMOOTH",
"706 3 OFFCURVE",
"717 -7 OFFCURVE",
"727 -7 CURVE SMOOTH",
"738 -7 OFFCURVE",
"748 3 OFFCURVE",
"748 23 CURVE SMOOTH",
"748 286 LINE SMOOTH",
"748 426 OFFCURVE",
"690 461 OFFCURVE",
"565 461 CURVE SMOOTH",
"502 461 OFFCURVE",
"455 432 OFFCURVE",
"424 374 CURVE",
"401 442 OFFCURVE",
"344 461 OFFCURVE",
"268 461 CURVE SMOOTH",
"192 461 OFFCURVE",
"163 441 OFFCURVE",
"123 389 CURVE",
"123 437 LINE SMOOTH",
"123 458 OFFCURVE",
"115 468 OFFCURVE",
"100 468 CURVE SMOOTH",
"87 468 OFFCURVE",
"81 458 OFFCURVE",
"81 437 CURVE SMOOTH",
"81 23 LINE SMOOTH",
"81 3 OFFCURVE",
"92 -7 OFFCURVE",
"102 -7 CURVE SMOOTH"
);
}
);
};
layerId = "0E6FACCE-B85C-44A4-8B06-9EFDFED90B40";
paths = (
{
closed = 1;
nodes = (
"111.046 -19 OFFCURVE",
"120 -10.046 OFFCURVE",
"120 1 CURVE SMOOTH",
"120 294.48 LINE",
"142.972 382.923 OFFCURVE",
"189.004 421 OFFCURVE",
"272 421 CURVE SMOOTH",
"358.116 421 OFFCURVE",
"394 388.356 OFFCURVE",
"394 311 CURVE SMOOTH",
"394 1 LINE SMOOTH",
"394 -10.046 OFFCURVE",
"402.954 -19 OFFCURVE",
"414 -19 CURVE SMOOTH",
"425.046 -19 OFFCURVE",
"434 -10.046 OFFCURVE",
"434 1 CURVE SMOOTH",
"434 294.48 LINE",
"456.972 382.923 OFFCURVE",
"503.004 421 OFFCURVE",
"586 421 CURVE SMOOTH",
"672.116 421 OFFCURVE",
"708 388.356 OFFCURVE",
"708 311 CURVE SMOOTH",
"708 1 LINE SMOOTH",
"708 -10.046 OFFCURVE",
"716.954 -19 OFFCURVE",
"728 -19 CURVE SMOOTH",
"739.046 -19 OFFCURVE",
"748 -10.046 OFFCURVE",
"748 1 CURVE SMOOTH",
"748 311 LINE SMOOTH",
"748 411.428 OFFCURVE",
"693.559 461 OFFCURVE",
"586 461 CURVE SMOOTH",
"510.934 461 OFFCURVE",
"457.748 433.405 OFFCURVE",
"423.977 376.348 CURVE",
"403.733 432.964 OFFCURVE",
"352.887 461 OFFCURVE",
"272 461 CURVE SMOOTH",
"203.979 461 OFFCURVE",
"153.924 438.342 OFFCURVE",
"120 391.637 CURVE",
"120 462 LINE SMOOTH",
"120 473.046 OFFCURVE",
"111.046 482 OFFCURVE",
"100 482 CURVE SMOOTH",
"88.954 482 OFFCURVE",
"80 473.046 OFFCURVE",
"80 462 CURVE SMOOTH",
"80 1 LINE SMOOTH",
"80 -10.046 OFFCURVE",
"88.954 -19 OFFCURVE",
"100 -19 CURVE SMOOTH"
);
}
);
width = 828;
}
);
leftMetricsKey = n;
rightMetricsKey = n;
unicode = 006D;
},
{
glyphname = n;
lastChange = "2016-07-15 00:41:30 +0000";
layers = (
{
background = {
paths = (
{
closed = 1;
nodes = (
"113 -7 OFFCURVE",
"123 3 OFFCURVE",
"123 23 CURVE SMOOTH",
"123 232 LINE SMOOTH",
"123 352 OFFCURVE",
"182 419 OFFCURVE",
"289 419 CURVE SMOOTH",
"318 419 LINE SMOOTH",
"429 419 OFFCURVE",
"483 408 OFFCURVE",
"483 286 CURVE SMOOTH",
"483 23 LINE SMOOTH",
"483 3 OFFCURVE",
"494 -7 OFFCURVE",
"504 -7 CURVE SMOOTH",
"515 -7 OFFCURVE",
"525 3 OFFCURVE",
"525 23 CURVE SMOOTH",
"525 286 LINE SMOOTH",
"525 426 OFFCURVE",
"458 461 OFFCURVE",
"318 461 CURVE SMOOTH",
"289 461 LINE SMOOTH",
"216 461 OFFCURVE",
"160 437 OFFCURVE",
"123 389 CURVE",
"123 437 LINE SMOOTH",
"123 458 OFFCURVE",
"115 468 OFFCURVE",
"100 468 CURVE SMOOTH",
"87 468 OFFCURVE",
"81 458 OFFCURVE",
"81 437 CURVE SMOOTH",
"81 23 LINE SMOOTH",
"81 3 OFFCURVE",
"92 -7 OFFCURVE",
"102 -7 CURVE SMOOTH"
);
}
);
};
layerId = "0E6FACCE-B85C-44A4-8B06-9EFDFED90B40";
paths = (
{
closed = 1;
nodes = (
"111.046 -4 OFFCURVE",
"120 4.954 OFFCURVE",
"120 16 CURVE SMOOTH",
"120 267 LINE SMOOTH",
"120 374.617 OFFCURVE",
"174.279 421 OFFCURVE",
"302 421 CURVE SMOOTH",
"416.292 421 OFFCURVE",
"464 387.66 OFFCURVE",
"464 311 CURVE SMOOTH",
"464 16 LINE SMOOTH",
"464 4.954 OFFCURVE",
"472.954 -4 OFFCURVE",
"484 -4 CURVE SMOOTH",
"495.046 -4 OFFCURVE",
"504 4.954 OFFCURVE",
"504 16 CURVE SMOOTH",
"504 311 LINE SMOOTH",
"504 412.447 OFFCURVE",
"436.903 461 OFFCURVE",
"302 461 CURVE SMOOTH",
"216.53 461 OFFCURVE",
"156.032 440.261 OFFCURVE",
"120 397.8 CURVE",
"120 461 LINE SMOOTH",
"120 472.046 OFFCURVE",
"111.046 481 OFFCURVE",
"100 481 CURVE SMOOTH",
"88.954 481 OFFCURVE",
"80 472.046 OFFCURVE",
"80 461 CURVE SMOOTH",
"80 16 LINE SMOOTH",
"80 4.954 OFFCURVE",
"88.954 -4 OFFCURVE",
"100 -4 CURVE SMOOTH"
);
}
);
width = 584;
},
{
associatedMasterId = "0E6FACCE-B85C-44A4-8B06-9EFDFED90B40";
background = {
paths = (
{
closed = 1;
nodes = (
"106 -7 OFFCURVE",
"116 3 OFFCURVE",
"116 23 CURVE SMOOTH",
"116 232 LINE SMOOTH",
"116 352 OFFCURVE",
"175.333 419 OFFCURVE",
"282 419 CURVE SMOOTH",
"311 419 LINE SMOOTH",
"422.143 419 OFFCURVE",
"476 408.017 OFFCURVE",
"476 286 CURVE SMOOTH",
"476 23 LINE SMOOTH",
"476 3 OFFCURVE",
"487 -7 OFFCURVE",
"497 -7 CURVE SMOOTH",
"508 -7 OFFCURVE",
"518 3 OFFCURVE",
"518 23 CURVE SMOOTH",
"518 286 LINE SMOOTH",
"518 426 OFFCURVE",
"451 461 OFFCURVE",
"311 461 CURVE SMOOTH",
"282 461 LINE SMOOTH",
"208.667 461 OFFCURVE",
"153.333 437 OFFCURVE",
"116 389 CURVE",
"116 437 LINE SMOOTH",
"116 457.667 OFFCURVE",
"108.333 468 OFFCURVE",
"93 468 CURVE SMOOTH",
"80.333 468 OFFCURVE",
"74 457.667 OFFCURVE",
"74 437 CURVE SMOOTH",
"74 23 LINE SMOOTH",
"74 3 OFFCURVE",
"85 -7 OFFCURVE",
"95 -7 CURVE SMOOTH"
);
}
);
};
layerId = "98EC6F63-6639-454F-9F2B-6AB61C1FD1D8";
name = "Light Jun 28 16, 14:55";
paths = (
{
closed = 0;
nodes = (
"93 447 LINE",
"93 16 LINE"
);
},
{
closed = 0;
nodes = (
"497 16 LINE",
"497 311 LINE",
"497 400 OFFCURVE",
"437 441 OFFCURVE",
"305 441 CURVE SMOOTH",
"160 441 OFFCURVE",
"93 386 OFFCURVE",
"93 267 CURVE"
);
}
);
width = 600;
}
);
unicode = 006E;
},
{
glyphname = o;
lastChange = "2016-07-15 00:41:30 +0000";
layers = (
{
background = {
paths = (
{
closed = 1;
nodes = (
"306 0 LINE SMOOTH",
"446 0 OFFCURVE",
"513 35 OFFCURVE",
"513 175 CURVE SMOOTH",
"513 286 LINE SMOOTH",
"513 426 OFFCURVE",
"446 461 OFFCURVE",
"306 461 CURVE SMOOTH",
"277 461 LINE SMOOTH",
"136 461 OFFCURVE",
"69 426 OFFCURVE",
"69 286 CURVE SMOOTH",
"69 175 LINE SMOOTH",
"69 35 OFFCURVE",
"136 0 OFFCURVE",
"277 0 CURVE SMOOTH"
);
},
{
closed = 1;
nodes = (
"164 42 OFFCURVE",
"111 53 OFFCURVE",
"111 175 CURVE SMOOTH",
"111 286 LINE SMOOTH",
"111 408 OFFCURVE",
"164 419 OFFCURVE",
"277 419 CURVE SMOOTH",
"306 419 LINE SMOOTH",
"417 419 OFFCURVE",
"471 408 OFFCURVE",
"471 286 CURVE SMOOTH",
"471 175 LINE SMOOTH",
"471 53 OFFCURVE",
"417 42 OFFCURVE",
"306 42 CURVE SMOOTH",
"277 42 LINE SMOOTH"
);
}
);
};
layerId = "0E6FACCE-B85C-44A4-8B06-9EFDFED90B40";
paths = (
{
closed = 1;
nodes = (
"437.878 0 OFFCURVE",
"514 50.004 OFFCURVE",
"514 150 CURVE SMOOTH",
"514 311 LINE SMOOTH",
"514 410.996 OFFCURVE",
"437.878 461 OFFCURVE",
"292 461 CURVE SMOOTH",
"146.122 461 OFFCURVE",
"70 410.996 OFFCURVE",
"70 311 CURVE SMOOTH",
"70 150 LINE SMOOTH",
"70 53.543 OFFCURVE",
"150.534 0 OFFCURVE",
"292 0 CURVE SMOOTH"
);
},
{
closed = 1;
nodes = (
"172.014 40 OFFCURVE",
"110 78.519 OFFCURVE",
"110 150 CURVE SMOOTH",
"110 311 LINE SMOOTH",
"110 385.379 OFFCURVE",
"166.349 421 OFFCURVE",
"292 421 CURVE SMOOTH",
"417.651 421 OFFCURVE",
"474 385.379 OFFCURVE",
"474 311 CURVE SMOOTH",
"474 150 LINE SMOOTH",
"474 75.621 OFFCURVE",
"417.651 40 OFFCURVE",
"292 40 CURVE SMOOTH"
);
}
);
width = 584;
}
);
unicode = 006F;
},
{
glyphname = p;
lastChange = "2016-07-15 00:41:30 +0000";
layers = (
{
background = {
paths = (
{
closed = 1;
nodes = (
"109.333 -182 OFFCURVE",
"117 -172 OFFCURVE",
"117 -152 CURVE SMOOTH",
"117 0 LINE",
"312 0 LINE SMOOTH",
"452 0 OFFCURVE",
"519 35 OFFCURVE",
"519 175 CURVE SMOOTH",
"519 286 LINE SMOOTH",
"519 426 OFFCURVE",
"452 461 OFFCURVE",
"312 461 CURVE SMOOTH",
"283 461 LINE SMOOTH",
"209.667 461 OFFCURVE",
"154.333 437 OFFCURVE",
"117 389 CURVE",
"117 438 LINE SMOOTH",
"117 458 OFFCURVE",
"107 468 OFFCURVE",
"96 468 CURVE SMOOTH",
"86 468 OFFCURVE",
"75 458 OFFCURVE",
"75 438 CURVE SMOOTH",
"75 -152 LINE SMOOTH",
"75 -172 OFFCURVE",
"81.333 -182 OFFCURVE",
"94 -182 CURVE SMOOTH"
);
},
{
closed = 1;
nodes = (
"117 232 LINE SMOOTH",
"117 352 OFFCURVE",
"176.333 419 OFFCURVE",
"283 419 CURVE SMOOTH",
"312 419 LINE SMOOTH",
"423.143 419 OFFCURVE",
"477 408.017 OFFCURVE",
"477 286 CURVE SMOOTH",
"477 175 LINE SMOOTH",
"477 52.983 OFFCURVE",
"423.143 42 OFFCURVE",
"312 42 CURVE SMOOTH",
"117 42 LINE"
);
}
);
};
components = (
{
name = q;
transform = "{-1, 0, 0, 1, 594, 0}";
}
);
layerId = "0E6FACCE-B85C-44A4-8B06-9EFDFED90B40";
width = 594;
}
);
unicode = 0070;
},
{
glyphname = q;
lastChange = "2016-07-15 00:41:30 +0000";
layers = (
{
background = {
paths = (
{
closed = 1;
nodes = (
"499.667 -182 OFFCURVE",
"506 -172 OFFCURVE",
"506 -152 CURVE SMOOTH",
"506 438 LINE SMOOTH",
"506 458 OFFCURVE",
"496 468 OFFCURVE",
"485 468 CURVE SMOOTH",
"475 468 OFFCURVE",
"464 458 OFFCURVE",
"464 438 CURVE SMOOTH",
"464 389 LINE",
"428 437 OFFCURVE",
"373 461 OFFCURVE",
"299 461 CURVE SMOOTH",
"270 461 LINE SMOOTH",
"128.667 461 OFFCURVE",
"62 426 OFFCURVE",
"62 286 CURVE SMOOTH",
"62 175 LINE SMOOTH",
"62 35 OFFCURVE",
"128.667 0 OFFCURVE",
"270 0 CURVE SMOOTH",
"464 0 LINE",
"464 -152 LINE SMOOTH",
"464 -172 OFFCURVE",
"471.667 -182 OFFCURVE",
"487 -182 CURVE SMOOTH"
);
},
{
closed = 1;
nodes = (
"157.186 42 OFFCURVE",
"104 52.983 OFFCURVE",
"104 175 CURVE SMOOTH",
"104 286 LINE SMOOTH",
"104 408.017 OFFCURVE",
"157.186 419 OFFCURVE",
"270 419 CURVE SMOOTH",
"299 419 LINE SMOOTH",
"404.333 419 OFFCURVE",
"464 352 OFFCURVE",
"464 232 CURVE SMOOTH",
"464 42 LINE",
"270 42 LINE SMOOTH"
);
}
);
};
components = (
{
name = o;
}
);
layerId = "0E6FACCE-B85C-44A4-8B06-9EFDFED90B40";
paths = (
{
closed = 0;
nodes = (
"494 -182 LINE",
"494 461 LINE"
);
}
);
width = 594;
}
);
rightMetricsKey = n;
unicode = 0071;
},
{
glyphname = r;
lastChange = "2016-07-15 00:41:30 +0000";
layers = (
{
background = {
paths = (
{
closed = 1;
nodes = (
"113 -7 OFFCURVE",
"123 3 OFFCURVE",
"123 23 CURVE SMOOTH",
"123 232 LINE SMOOTH",
"123 352 OFFCURVE",
"182 419 OFFCURVE",
"289 419 CURVE SMOOTH",
"335 419 LINE SMOOTH",
"355 419 OFFCURVE",
"365 430 OFFCURVE",
"365 440 CURVE SMOOTH",
"365 451 OFFCURVE",
"355 461 OFFCURVE",
"335 461 CURVE SMOOTH",
"289 461 LINE SMOOTH",
"216 461 OFFCURVE",
"160 437 OFFCURVE",
"123 389 CURVE",
"123 437 LINE SMOOTH",
"123 458 OFFCURVE",
"115 468 OFFCURVE",
"100 468 CURVE SMOOTH",
"87 468 OFFCURVE",
"81 458 OFFCURVE",
"81 437 CURVE SMOOTH",
"81 23 LINE SMOOTH",
"81 3 OFFCURVE",
"92 -7 OFFCURVE",
"102 -7 CURVE SMOOTH"
);
}
);
};
layerId = "0E6FACCE-B85C-44A4-8B06-9EFDFED90B40";
paths = (
{
closed = 1;
nodes = (
"111.046 -20 OFFCURVE",
"120 -11.046 OFFCURVE",
"120 0 CURVE SMOOTH",
"120 242 LINE SMOOTH",
"120 374.945 OFFCURVE",
"178.465 421 OFFCURVE",
"345 421 CURVE SMOOTH",
"356.046 421 OFFCURVE",
"365 429.954 OFFCURVE",
"365 441 CURVE SMOOTH",
"365 452.046 OFFCURVE",
"356.046 461 OFFCURVE",
"345 461 CURVE SMOOTH",
"232.976 461 OFFCURVE",
"160.388 439.108 OFFCURVE",
"120 388.169 CURVE",
"120 461 LINE SMOOTH",
"120 472.046 OFFCURVE",
"111.046 481 OFFCURVE",
"100 481 CURVE SMOOTH",
"88.954 481 OFFCURVE",
"80 472.046 OFFCURVE",
"80 461 CURVE SMOOTH",
"80 0 LINE SMOOTH",
"80 -11.046 OFFCURVE",
"88.954 -20 OFFCURVE",
"100 -20 CURVE SMOOTH"
);
}
);
width = 385;
}
);
leftMetricsKey = n;
unicode = 0072;
},
{
glyphname = s;
lastChange = "2016-07-15 19:45:17 +0000";
layers = (
{
background = {
paths = (
{
closed = 1;
nodes = (
"372 0 LINE SMOOTH",
"454 0 OFFCURVE",
"495 41 OFFCURVE",
"495 123 CURVE SMOOTH",
"495 212 OFFCURVE",
"454 257 OFFCURVE",
"372 257 CURVE SMOOTH",
"155 257 LINE SMOOTH",
"118 257 OFFCURVE",
"91 288 OFFCURVE",
"91 343 CURVE SMOOTH",
"91 394 OFFCURVE",
"112 419 OFFCURVE",
"155 419 CURVE SMOOTH",
"391 419 LINE SMOOTH",
"436 419 OFFCURVE",
"451 399 OFFCURVE",
"451 356 CURVE SMOOTH",
"451 335 OFFCURVE",
"458 324 OFFCURVE",
"472 324 CURVE SMOOTH",
"486 324 OFFCURVE",
"493 340 OFFCURVE",
"493 362 CURVE SMOOTH",
"493 383 OFFCURVE",
"487 408 OFFCURVE",
"477 429 CURVE SMOOTH",
"467 450 OFFCURVE",
"442 461 OFFCURVE",
"402 461 CURVE",
"401 461 OFFCURVE",
"399 461 OFFCURVE",
"398 461 CURVE",
"173 461 LINE SMOOTH",
"84 461 OFFCURVE",
"49 420 OFFCURVE",
"49 343 CURVE SMOOTH",
"49 258 OFFCURVE",
"90 215 OFFCURVE",
"173 215 CURVE SMOOTH",
"389 215 LINE SMOOTH",
"426 215 OFFCURVE",
"453 179 OFFCURVE",
"453 123 CURVE SMOOTH",
"453 69 OFFCURVE",
"432 42 OFFCURVE",
"389 42 CURVE SMOOTH",
"151 42 LINE SMOOTH",
"106 42 OFFCURVE",
"91 61 OFFCURVE",
"91 105 CURVE SMOOTH",
"91 126 OFFCURVE",
"84 137 OFFCURVE",
"70 137 CURVE",
"58 138 OFFCURVE",
"48 116 OFFCURVE",
"48 89 CURVE SMOOTH",
"48 47 OFFCURVE",
"71 -6 OFFCURVE",
"144 0 CURVE"
);
}
);
};
layerId = "0E6FACCE-B85C-44A4-8B06-9EFDFED90B40";
paths = (
{
closed = 1;
nodes = (
"438.544 -1 OFFCURVE",
"481 44.585 OFFCURVE",
"481 135 CURVE SMOOTH",
"481 216.934 OFFCURVE",
"441.002 258 OFFCURVE",
"361 258 CURVE SMOOTH",
"194 258 LINE SMOOTH",
"133.247 258 OFFCURVE",
"109 281.244 OFFCURVE",
"109 339 CURVE SMOOTH",
"109 403.763 OFFCURVE",
"127.539 429 OFFCURVE",
"172 429 CURVE SMOOTH",
"350 429 LINE SMOOTH",
"407.117 429 OFFCURVE",
"430 403.372 OFFCURVE",
"430 338 CURVE SMOOTH",
"430 326.954 OFFCURVE",
"438.954 318 OFFCURVE",
"450 318 CURVE SMOOTH",
"461.046 318 OFFCURVE",
"470 326.954 OFFCURVE",
"470 338 CURVE SMOOTH",
"470 425.048 OFFCURVE",
"429.966 469 OFFCURVE",
"350 469 CURVE SMOOTH",
"172 469 LINE SMOOTH",
"103.11 469 OFFCURVE",
"69 424.487 OFFCURVE",
"69 339 CURVE SMOOTH",
"69 258.815 OFFCURVE",
"111.254 218 OFFCURVE",
"194 218 CURVE SMOOTH",
"361 218 LINE SMOOTH",
"418.623 218 OFFCURVE",
"441 194.894 OFFCURVE",
"441 135 CURVE SMOOTH",
"441 66.137 OFFCURVE",
"415.628 39 OFFCURVE",
"352 39 CURVE SMOOTH",
"176.114 40 LINE SMOOTH",
"114.112 40 OFFCURVE",
"90 63.373 OFFCURVE",
"90 123 CURVE SMOOTH",
"90 134.046 OFFCURVE",
"81.046 143 OFFCURVE",
"70 143 CURVE SMOOTH",
"58.954 143 OFFCURVE",
"50 134.046 OFFCURVE",
"50 123 CURVE SMOOTH",
"50 41 OFFCURVE",
"92.065 0 OFFCURVE",
"176 0 CURVE SMOOTH",
"351.886 -1 LINE SMOOTH"
);
}
);
width = 530;
},
{
associatedMasterId = "0E6FACCE-B85C-44A4-8B06-9EFDFED90B40";
background = {
paths = (
{
closed = 1;
nodes = (
"372 0 LINE SMOOTH",
"454 0 OFFCURVE",
"495 41 OFFCURVE",
"495 123 CURVE SMOOTH",
"495 212 OFFCURVE",
"454 257 OFFCURVE",
"372 257 CURVE SMOOTH",
"155 257 LINE SMOOTH",
"118 257 OFFCURVE",
"91 288 OFFCURVE",
"91 343 CURVE SMOOTH",
"91 394 OFFCURVE",
"112 419 OFFCURVE",
"155 419 CURVE SMOOTH",
"391 419 LINE SMOOTH",
"436 419 OFFCURVE",
"451 399 OFFCURVE",
"451 356 CURVE SMOOTH",
"451 335 OFFCURVE",
"458 324 OFFCURVE",
"472 324 CURVE SMOOTH",
"486 324 OFFCURVE",
"493 340 OFFCURVE",
"493 362 CURVE SMOOTH",
"493 383 OFFCURVE",
"487 408 OFFCURVE",
"477 429 CURVE SMOOTH",
"467 450 OFFCURVE",
"442 461 OFFCURVE",
"402 461 CURVE",
"401 461 OFFCURVE",
"399 461 OFFCURVE",
"398 461 CURVE",
"173 461 LINE SMOOTH",
"84 461 OFFCURVE",
"49 420 OFFCURVE",
"49 343 CURVE SMOOTH",
"49 258 OFFCURVE",
"90 215 OFFCURVE",
"173 215 CURVE SMOOTH",
"389 215 LINE SMOOTH",
"426 215 OFFCURVE",
"453 179 OFFCURVE",
"453 123 CURVE SMOOTH",
"453 69 OFFCURVE",
"432 42 OFFCURVE",
"389 42 CURVE SMOOTH",
"151 42 LINE SMOOTH",
"106 42 OFFCURVE",
"91 61 OFFCURVE",
"91 105 CURVE SMOOTH",
"91 126 OFFCURVE",
"84 137 OFFCURVE",
"70 137 CURVE",
"58 138 OFFCURVE",
"48 116 OFFCURVE",
"48 89 CURVE SMOOTH",
"48 47 OFFCURVE",
"71 -6 OFFCURVE",
"144 0 CURVE"
);
}
);
};
layerId = "80EC33B1-F990-4475-9F32-14C5CF74787D";
name = "Light Jul 15 16, 15:44";
paths = (
{
closed = 1;
nodes = (
"460.695 -41 OFFCURVE",
"521 22 OFFCURVE",
"521 135 CURVE SMOOTH",
"521 239.226 OFFCURVE",
"463.416 298 OFFCURVE",
"361 298 CURVE SMOOTH",
"194 298 LINE SMOOTH",
"154.957 298 OFFCURVE",
"149 304.569 OFFCURVE",
"149 339 CURVE SMOOTH",
"149 384.744 OFFCURVE",
"154.563 389 OFFCURVE",
"172 389 CURVE SMOOTH",
"350 389 LINE",
"390 389 LINE",
"390 345 OFFCURVE",
"417 318 OFFCURVE",
"450 318 CURVE SMOOTH",
"483 318 OFFCURVE",
"510 345 OFFCURVE",
"510 378 CURVE",
"510 487 OFFCURVE",
"452.571 509 OFFCURVE",
"350 509 CURVE SMOOTH",
"172 509 LINE SMOOTH",
"80.226 509 OFFCURVE",
"29 446.324 OFFCURVE",
"29 339 CURVE SMOOTH",
"29 236.381 OFFCURVE",
"89.638 178 OFFCURVE",
"194 178 CURVE SMOOTH",
"361 178 LINE SMOOTH",
"395.13 178 OFFCURVE",
"401 173.443 OFFCURVE",
"401 135 CURVE SMOOTH",
"401 87.713 OFFCURVE",
"392.047 79 OFFCURVE",
"352 79 CURVE SMOOTH",
"176.341 80 LINE SMOOTH",
"135.96 80 OFFCURVE",
"130 86.585 OFFCURVE",
"130 123 CURVE SMOOTH",
"130 155.666 OFFCURVE",
"103.326 183 OFFCURVE",
"70 183 CURVE SMOOTH",
"37.334 183 OFFCURVE",
"10 156.326 OFFCURVE",
"10 123 CURVE SMOOTH",
"10 18.589 OFFCURVE",
"69.775 -40 OFFCURVE",
"176 -40 CURVE SMOOTH",
"351.659 -41 LINE SMOOTH"
);
}
);
width = 530;
},
{
associatedMasterId = "0E6FACCE-B85C-44A4-8B06-9EFDFED90B40";
background = {
paths = (
{
closed = 1;
nodes = (
"372 0 LINE SMOOTH",
"454 0 OFFCURVE",
"495 41 OFFCURVE",
"495 123 CURVE SMOOTH",
"495 212 OFFCURVE",
"454 257 OFFCURVE",
"372 257 CURVE SMOOTH",
"155 257 LINE SMOOTH",
"118 257 OFFCURVE",
"91 288 OFFCURVE",
"91 343 CURVE SMOOTH",
"91 394 OFFCURVE",
"112 419 OFFCURVE",
"155 419 CURVE SMOOTH",
"391 419 LINE SMOOTH",
"436 419 OFFCURVE",
"451 399 OFFCURVE",
"451 356 CURVE SMOOTH",
"451 335 OFFCURVE",
"458 324 OFFCURVE",
"472 324 CURVE SMOOTH",
"486 324 OFFCURVE",
"493 340 OFFCURVE",
"493 362 CURVE SMOOTH",
"493 383 OFFCURVE",
"487 408 OFFCURVE",
"477 429 CURVE SMOOTH",
"467 450 OFFCURVE",
"442 461 OFFCURVE",
"402 461 CURVE",
"401 461 OFFCURVE",
"399 461 OFFCURVE",
"398 461 CURVE",
"173 461 LINE SMOOTH",
"84 461 OFFCURVE",
"49 420 OFFCURVE",
"49 343 CURVE SMOOTH",
"49 258 OFFCURVE",
"90 215 OFFCURVE",
"173 215 CURVE SMOOTH",
"389 215 LINE SMOOTH",
"426 215 OFFCURVE",
"453 179 OFFCURVE",
"453 123 CURVE SMOOTH",
"453 69 OFFCURVE",
"432 42 OFFCURVE",
"389 42 CURVE SMOOTH",
"151 42 LINE SMOOTH",
"106 42 OFFCURVE",
"91 61 OFFCURVE",
"91 105 CURVE SMOOTH",
"91 126 OFFCURVE",
"84 137 OFFCURVE",
"70 137 CURVE",
"58 138 OFFCURVE",
"48 116 OFFCURVE",
"48 89 CURVE SMOOTH",
"48 47 OFFCURVE",
"71 -6 OFFCURVE",
"144 0 CURVE"
);
}
);
};
layerId = "9B10E179-32B0-4BC3-9DE0-1767CE81801B";
name = "Light Jul 15 16, 15:44 Jul 15 16, 15:45";
paths = (
{
closed = 1;
nodes = (
"460.695 -41 OFFCURVE",
"521 22 OFFCURVE",
"521 135 CURVE SMOOTH",
"521 239.226 OFFCURVE",
"463.416 298 OFFCURVE",
"361 298 CURVE SMOOTH",
"194 298 LINE SMOOTH",
"154.957 298 OFFCURVE",
"149 304.569 OFFCURVE",
"149 339 CURVE SMOOTH",
"149 384.744 OFFCURVE",
"154.563 389 OFFCURVE",
"172 389 CURVE SMOOTH",
"350 389 LINE",
"390 389 LINE",
"390 345 OFFCURVE",
"417 318 OFFCURVE",
"450 318 CURVE SMOOTH",
"483 318 OFFCURVE",
"510 345 OFFCURVE",
"510 378 CURVE",
"510 487 OFFCURVE",
"452.571 509 OFFCURVE",
"350 509 CURVE SMOOTH",
"172 509 LINE SMOOTH",
"80.226 509 OFFCURVE",
"29 446.324 OFFCURVE",
"29 339 CURVE SMOOTH",
"29 236.381 OFFCURVE",
"89.638 178 OFFCURVE",
"194 178 CURVE SMOOTH",
"361 178 LINE SMOOTH",
"395.13 178 OFFCURVE",
"401 173.443 OFFCURVE",
"401 135 CURVE SMOOTH",
"401 87.713 OFFCURVE",
"392.047 79 OFFCURVE",
"352 79 CURVE SMOOTH",
"176.341 80 LINE SMOOTH",
"135.96 80 OFFCURVE",
"130 86.585 OFFCURVE",
"130 123 CURVE SMOOTH",
"130 155.666 OFFCURVE",
"103.326 183 OFFCURVE",
"70 183 CURVE SMOOTH",
"37.334 183 OFFCURVE",
"10 156.326 OFFCURVE",
"10 123 CURVE SMOOTH",
"10 18.589 OFFCURVE",
"69.775 -40 OFFCURVE",
"176 -40 CURVE SMOOTH",
"351.659 -41 LINE SMOOTH"
);
}
);
width = 530;
}
);
unicode = 0073;
},
{
glyphname = t;
lastChange = "2016-07-15 00:41:30 +0000";
layers = (
{
background = {
paths = (
{
closed = 1;
nodes = (
"305 0 OFFCURVE",
"315 7.667 OFFCURVE",
"315 23 CURVE SMOOTH",
"315 35.667 OFFCURVE",
"305 42 OFFCURVE",
"285 42 CURVE SMOOTH",
"172.186 42 OFFCURVE",
"119 52.983 OFFCURVE",
"119 175 CURVE SMOOTH",
"119 419 LINE",
"262 419 LINE SMOOTH",
"282.667 419 OFFCURVE",
"293 425.333 OFFCURVE",
"293 438 CURVE SMOOTH",
"293 453.333 OFFCURVE",
"282.667 461 OFFCURVE",
"262 461 CURVE SMOOTH",
"119 461 LINE",
"119 570 LINE SMOOTH",
"119 590.667 OFFCURVE",
"111.333 601 OFFCURVE",
"96 601 CURVE SMOOTH",
"83.333 601 OFFCURVE",
"77 590.667 OFFCURVE",
"77 570 CURVE SMOOTH",
"77 461 LINE",
"56 461 OFFCURVE",
"46 451 OFFCURVE",
"46 440 CURVE SMOOTH",
"46 430 OFFCURVE",
"56 419 OFFCURVE",
"77 419 CURVE",
"77 171 LINE SMOOTH",
"77 100.333 OFFCURVE",
"96 53.667 OFFCURVE",
"134 31 CURVE SMOOTH",
"167.333 10.333 OFFCURVE",
"217.667 0 OFFCURVE",
"285 0 CURVE SMOOTH"
);
}
);
};
layerId = "0E6FACCE-B85C-44A4-8B06-9EFDFED90B40";
paths = (
{
closed = 1;
nodes = (
"280.046 0 OFFCURVE",
"289 8.954 OFFCURVE",
"289 20 CURVE SMOOTH",
"289 31.046 OFFCURVE",
"280.046 40 OFFCURVE",
"269 40 CURVE SMOOTH",
"177.987 40 OFFCURVE",
"145 62.995 OFFCURVE",
"145 121 CURVE SMOOTH",
"145 421 LINE",
"278 421 LINE SMOOTH",
"289.046 421 OFFCURVE",
"298 429.954 OFFCURVE",
"298 441 CURVE SMOOTH",
"298 452.046 OFFCURVE",
"289.046 461 OFFCURVE",
"278 461 CURVE SMOOTH",
"145 461 LINE",
"145 583 LINE SMOOTH",
"145 594.046 OFFCURVE",
"136.046 603 OFFCURVE",
"125 603 CURVE SMOOTH",
"113.954 603 OFFCURVE",
"105 594.046 OFFCURVE",
"105 583 CURVE SMOOTH",
"105 461 LINE",
"50 461 LINE SMOOTH",
"38.954 461 OFFCURVE",
"30 452.046 OFFCURVE",
"30 441 CURVE SMOOTH",
"30 429.954 OFFCURVE",
"38.954 421 OFFCURVE",
"50 421 CURVE SMOOTH",
"105 421 LINE",
"105 121 LINE SMOOTH",
"105 37.832 OFFCURVE",
"158.019 0 OFFCURVE",
"269 0 CURVE SMOOTH"
);
}
);
width = 328;
}
);
unicode = 0074;
},
{
glyphname = u;
lastChange = "2016-07-15 00:41:30 +0000";
layers = (
{
background = {
paths = (
{
closed = 1;
nodes = (
"507.667 -7 OFFCURVE",
"514 3.333 OFFCURVE",
"514 24 CURVE SMOOTH",
"514 438 LINE SMOOTH",
"514 458 OFFCURVE",
"504 468 OFFCURVE",
"493 468 CURVE SMOOTH",
"483 468 OFFCURVE",
"472 458 OFFCURVE",
"472 438 CURVE SMOOTH",
"472 228 LINE SMOOTH",
"472 108 OFFCURVE",
"412.333 42 OFFCURVE",
"307 42 CURVE SMOOTH",
"278 42 LINE SMOOTH",
"165.186 42 OFFCURVE",
"112 52.983 OFFCURVE",
"112 175 CURVE SMOOTH",
"112 438 LINE SMOOTH",
"112 458 OFFCURVE",
"102 468 OFFCURVE",
"91 468 CURVE SMOOTH",
"81 468 OFFCURVE",
"70 458 OFFCURVE",
"70 438 CURVE SMOOTH",
"70 175 LINE SMOOTH",
"70 35 OFFCURVE",
"136.667 0 OFFCURVE",
"278 0 CURVE SMOOTH",
"307 0 LINE SMOOTH",
"381 0 OFFCURVE",
"436 24 OFFCURVE",
"472 72 CURVE",
"472 24 LINE SMOOTH",
"472 3.333 OFFCURVE",
"479.667 -7 OFFCURVE",
"495 -7 CURVE SMOOTH"
);
}
);
};
components = (
{
name = n;
transform = "{-1, 0, 0, -1, 584, 461}";
}
);
layerId = "0E6FACCE-B85C-44A4-8B06-9EFDFED90B40";
width = 584;
}
);
unicode = 0075;
},
{
glyphname = v;
lastChange = "2016-07-15 00:41:30 +0000";
layers = (
{
background = {
paths = (
{
closed = 1;
nodes = (
"272 0 LINE",
"465 439 LINE",
"467 441 OFFCURVE",
"468 445 OFFCURVE",
"468 450 CURVE SMOOTH",
"468 462 OFFCURVE",
"462 468 OFFCURVE",
"449 468 CURVE SMOOTH",
"440 468 OFFCURVE",
"432 462 OFFCURVE",
"426 450 CURVE SMOOTH",
"246 46 LINE",
"239 46 LINE",
"66 449 LINE SMOOTH",
"61 462 OFFCURVE",
"54 468 OFFCURVE",
"46 468 CURVE SMOOTH",
"31 468 OFFCURVE",
"24 462 OFFCURVE",
"24 449 CURVE SMOOTH",
"24 444 OFFCURVE",
"25 440 OFFCURVE",
"27 439 CURVE",
"208 0 LINE"
);
}
);
};
layerId = "0E6FACCE-B85C-44A4-8B06-9EFDFED90B40";
paths = (
{
closed = 1;
nodes = (
"233.908 -13 OFFCURVE",
"235.753 -12.733 OFFCURVE",
"237.5 -12.234 CURVE",
"239.247 -12.733 OFFCURVE",
"241.092 -13 OFFCURVE",
"243 -13 CURVE SMOOTH",
"251.159 -13 OFFCURVE",
"258.176 -8.115 OFFCURVE",
"261.287 -1.11 CURVE SMOOTH",
"466.915 436.098 LINE SMOOTH",
"468.249 438.779 OFFCURVE",
"469 441.802 OFFCURVE",
"469 445 CURVE SMOOTH",
"469 456.046 OFFCURVE",
"460.046 465 OFFCURVE",
"449 465 CURVE SMOOTH",
"440.841 465 OFFCURVE",
"433.824 460.115 OFFCURVE",
"430.713 453.11 CURVE SMOOTH",
"237.991 43.342 LINE",
"58.526 455.551 LINE SMOOTH",
"55.546 462.853 OFFCURVE",
"48.374 468 OFFCURVE",
"40 468 CURVE SMOOTH",
"28.954 468 OFFCURVE",
"20 459.046 OFFCURVE",
"20 448 CURVE SMOOTH",
"20 445.005 OFFCURVE",
"20.659 442.163 OFFCURVE",
"21.839 439.612 CURVE SMOOTH",
"213.475 -0.551 LINE SMOOTH",
"216.454 -7.854 OFFCURVE",
"223.626 -13 OFFCURVE",
"232 -13 CURVE SMOOTH"
);
}
);
width = 489;
}
);
unicode = 0076;
},
{
glyphname = w;
lastChange = "2016-07-15 00:41:30 +0000";
layers = (
{
background = {
paths = (
{
closed = 1;
nodes = (
"230 0 LINE",
"366 384 LINE",
"492 0 LINE",
"563 0 LINE",
"718 439 LINE",
"721 442 OFFCURVE",
"722 446 OFFCURVE",
"722 451 CURVE SMOOTH",
"722 460 OFFCURVE",
"705 468 OFFCURVE",
"694 468 CURVE SMOOTH",
"687 468 OFFCURVE",
"681 462 OFFCURVE",
"677 450 CURVE SMOOTH",
"532 46 LINE",
"526 46 LINE",
"388 450 LINE",
"385 461 OFFCURVE",
"375 467 OFFCURVE",
"365 467 CURVE SMOOTH",
"355 467 OFFCURVE",
"346 461 OFFCURVE",
"344 450 CURVE",
"200 46 LINE",
"194 46 LINE",
"55 449 LINE SMOOTH",
"50 462 OFFCURVE",
"45 468 OFFCURVE",
"38 468 CURVE SMOOTH",
"20 468 OFFCURVE",
"2 443 OFFCURVE",
"14 439 CURVE",
"159 0 LINE"
);
}
);
};
layerId = "0E6FACCE-B85C-44A4-8B06-9EFDFED90B40";
paths = (
{
closed = 1;
nodes = (
"206.908 -13 OFFCURVE",
"208.753 -12.733 OFFCURVE",
"210.5 -12.234 CURVE",
"212.247 -12.733 OFFCURVE",
"214.092 -13 OFFCURVE",
"216 -13 CURVE SMOOTH",
"224.733 -13 OFFCURVE",
"232.158 -7.404 OFFCURVE",
"234.885 0.399 CURVE SMOOTH",
"368.993 357.451 LINE",
"490.937 0.933 LINE SMOOTH",
"493.506 -7.147 OFFCURVE",
"501.069 -13 OFFCURVE",
"510 -13 CURVE SMOOTH",
"511.908 -13 OFFCURVE",
"513.753 -12.733 OFFCURVE",
"515.5 -12.234 CURVE",
"517.247 -12.733 OFFCURVE",
"519.093 -13 OFFCURVE",
"521 -13 CURVE SMOOTH",
"529.962 -13 OFFCURVE",
"537.546 -7.106 OFFCURVE",
"540.089 1.017 CURVE SMOOTH",
"687.806 438.176 LINE SMOOTH",
"688.578 440.306 OFFCURVE",
"689 442.604 OFFCURVE",
"689 445 CURVE SMOOTH",
"689 456.046 OFFCURVE",
"680.046 465 OFFCURVE",
"669 465 CURVE SMOOTH",
"660.039 465 OFFCURVE",
"652.454 459.106 OFFCURVE",
"649.911 450.984 CURVE SMOOTH",
"515.418 52.959 LINE",
"391.119 416.361 LINE",
"392 418 OFFCURVE",
"391.385 418.095 OFFCURVE",
"390.399 418.465 CURVE",
"385.063 434.066 LINE SMOOTH",
"382.494 442.146 OFFCURVE",
"374.931 448 OFFCURVE",
"366 448 CURVE SMOOTH",
"354.954 448 OFFCURVE",
"346 439.046 OFFCURVE",
"346 428 CURVE SMOOTH",
"346 425.577 OFFCURVE",
"346.431 423.255 OFFCURVE",
"347.22 421.106 CURVE SMOOTH",
"348.628 416.991 LINE",
"211.624 52.231 LINE",
"84.201 453.615 LINE SMOOTH",
"81.774 461.928 OFFCURVE",
"74.096 468 OFFCURVE",
"65 468 CURVE SMOOTH",
"53.954 468 OFFCURVE",
"45 459.046 OFFCURVE",
"45 448 CURVE SMOOTH",
"45 445.725 OFFCURVE",
"45.38 443.539 OFFCURVE",
"46.08 441.502 CURVE SMOOTH",
"185.8 1.384 LINE SMOOTH",
"188.227 -6.928 OFFCURVE",
"195.904 -13 OFFCURVE",
"205 -13 CURVE SMOOTH"
);
}
);
width = 734;
}
);
unicode = 0077;
},
{
glyphname = x;
lastChange = "2016-07-15 00:41:30 +0000";
layers = (
{
background = {
paths = (
{
closed = 1;
nodes = (
"55 -12 OFFCURVE",
"63 -8 OFFCURVE",
"70 1 CURVE SMOOTH",
"236 198 LINE",
"401 1 LINE SMOOTH",
"408 -8 OFFCURVE",
"414 -12 OFFCURVE",
"419 -12 CURVE",
"420 -12 LINE",
"425 -12 OFFCURVE",
"430 -10 OFFCURVE",
"434 -6 CURVE SMOOTH",
"439 -2 OFFCURVE",
"441 2 OFFCURVE",
"441 7 CURVE SMOOTH",
"441 13 OFFCURVE",
"438 20 OFFCURVE",
"432 29 CURVE",
"262 230 LINE",
"432 433 LINE SMOOTH",
"437 440 OFFCURVE",
"439 446 OFFCURVE",
"439 452 CURVE SMOOTH",
"439 464 OFFCURVE",
"432 472 OFFCURVE",
"422 472 CURVE SMOOTH",
"415 472 OFFCURVE",
"408 468 OFFCURVE",
"401 460 CURVE SMOOTH",
"236 263 LINE",
"70 460 LINE",
"62 469 OFFCURVE",
"56 472 OFFCURVE",
"50 472 CURVE SMOOTH",
"45 472 OFFCURVE",
"40 470 OFFCURVE",
"35 466 CURVE",
"31 462 OFFCURVE",
"29 458 OFFCURVE",
"29 453 CURVE SMOOTH",
"29 447 OFFCURVE",
"32 441 OFFCURVE",
"38 433 CURVE SMOOTH",
"208 230 LINE",
"38 29 LINE",
"33 22 OFFCURVE",
"31 14 OFFCURVE",
"31 8 CURVE SMOOTH",
"31 -4 OFFCURVE",
"38 -12 OFFCURVE",
"48 -12 CURVE SMOOTH"
);
}
);
};
layerId = "0E6FACCE-B85C-44A4-8B06-9EFDFED90B40";
paths = (
{
closed = 1;
nodes = (
"431.046 -14 OFFCURVE",
"440 -5.046 OFFCURVE",
"440 6 CURVE SMOOTH",
"440 10.947 OFFCURVE",
"438.204 15.474 OFFCURVE",
"435.228 18.966 CURVE SMOOTH",
"259.81 228.532 LINE",
"442.077 440.859 LINE SMOOTH",
"445.143 444.373 OFFCURVE",
"447 448.97 OFFCURVE",
"447 454 CURVE SMOOTH",
"447 465.046 OFFCURVE",
"438.046 474 OFFCURVE",
"427 474 CURVE SMOOTH",
"420.863 474 OFFCURVE",
"415.372 471.236 OFFCURVE",
"411.703 466.885 CURVE SMOOTH",
"233.785 259.624 LINE",
"60.463 466.685 LINE SMOOTH",
"56.795 471.151 OFFCURVE",
"51.231 474 OFFCURVE",
"45 474 CURVE SMOOTH",
"33.954 474 OFFCURVE",
"25 465.046 OFFCURVE",
"25 454 CURVE SMOOTH",
"25 449.054 OFFCURVE",
"26.796 444.527 OFFCURVE",
"29.771 441.036 CURVE SMOOTH",
"207.375 228.858 LINE",
"29.923 22.141 LINE SMOOTH",
"26.857 18.627 OFFCURVE",
"25 14.03 OFFCURVE",
"25 9 CURVE SMOOTH",
"25 -2.046 OFFCURVE",
"33.954 -11 OFFCURVE",
"45 -11 CURVE SMOOTH",
"51.137 -11 OFFCURVE",
"56.629 -8.236 OFFCURVE",
"60.298 -3.884 CURVE SMOOTH",
"233.4 197.767 LINE",
"404.537 -6.686 LINE SMOOTH",
"408.205 -11.151 OFFCURVE",
"413.77 -14 OFFCURVE",
"420 -14 CURVE SMOOTH"
);
}
);
width = 472;
}
);
unicode = 0078;
},
{
glyphname = y;
lastChange = "2016-07-15 00:41:30 +0000";
layers = (
{
background = {
paths = (
{
closed = 0;
nodes = (
"497 461 LINE",
"497 16 LINE"
);
},
{
closed = 0;
nodes = (
"113 461 LINE",
"113 166 LINE",
"113 77 OFFCURVE",
"170 36 OFFCURVE",
"295 36 CURVE SMOOTH",
"434 36 OFFCURVE",
"497 91 OFFCURVE",
"497 210 CURVE"
);
}
);
};
layerId = "0E6FACCE-B85C-44A4-8B06-9EFDFED90B40";
paths = (
{
closed = 1;
nodes = (
"388 -202 LINE SMOOTH",
"473.823 -202 OFFCURVE",
"517 -158.112 OFFCURVE",
"517 -71 CURVE SMOOTH",
"517 445 LINE SMOOTH",
"517 456.046 OFFCURVE",
"508.046 465 OFFCURVE",
"497 465 CURVE SMOOTH",
"485.954 465 OFFCURVE",
"477 456.046 OFFCURVE",
"477 445 CURVE SMOOTH",
"477 194 LINE SMOOTH",
"477 86.383 OFFCURVE",
"422.721 40 OFFCURVE",
"295 40 CURVE SMOOTH",
"180.708 40 OFFCURVE",
"133 73.34 OFFCURVE",
"133 150 CURVE SMOOTH",
"133 445 LINE SMOOTH",
"133 456.046 OFFCURVE",
"124.046 465 OFFCURVE",
"113 465 CURVE SMOOTH",
"101.954 465 OFFCURVE",
"93 456.046 OFFCURVE",
"93 445 CURVE SMOOTH",
"93 150 LINE SMOOTH",
"93 48.553 OFFCURVE",
"160.097 0 OFFCURVE",
"295 0 CURVE SMOOTH",
"380.47 0 OFFCURVE",
"440.968 20.739 OFFCURVE",
"477 63.2 CURVE",
"477 -71 LINE SMOOTH",
"477 -136.004 OFFCURVE",
"451.511 -162 OFFCURVE",
"388 -162 CURVE SMOOTH",
"216 -162 LINE SMOOTH",
"147.086 -162 OFFCURVE",
"120 -139.445 OFFCURVE",
"120 -84 CURVE SMOOTH",
"120 -72.954 OFFCURVE",
"111.046 -64 OFFCURVE",
"100 -64 CURVE SMOOTH",
"88.954 -64 OFFCURVE",
"80 -72.954 OFFCURVE",
"80 -84 CURVE SMOOTH",
"80 -163.037 OFFCURVE",
"126.032 -202 OFFCURVE",
"216 -202 CURVE SMOOTH"
);
}
);
width = 597;
}
);
leftMetricsKey = u;
rightMetricsKey = u;
unicode = 0079;
},
{
glyphname = z;
lastChange = "2016-07-15 00:41:30 +0000";
layers = (
{
background = {
paths = (
{
closed = 1;
nodes = (
"385 0 LINE SMOOTH",
"457 0 OFFCURVE",
"480 30.667 OFFCURVE",
"480 124 CURVE SMOOTH",
"480 145.333 OFFCURVE",
"473 156 OFFCURVE",
"459 156 CURVE",
"458 156 LINE",
"431.333 156 OFFCURVE",
"438.833 100.833 OFFCURVE",
"435.5 81.5 CURVE SMOOTH",
"432.167 62.167 OFFCURVE",
"414.333 42 OFFCURVE",
"377 42 CURVE SMOOTH",
"108 42 LINE",
"459 399 LINE",
"459 461 LINE",
"153 461 LINE SMOOTH",
"79.667 461 OFFCURVE",
"58 430.333 OFFCURVE",
"58 337 CURVE SMOOTH",
"58 317 OFFCURVE",
"68 306 OFFCURVE",
"78 306 CURVE SMOOTH",
"89 306 OFFCURVE",
"100 318 OFFCURVE",
"100 342 CURVE SMOOTH",
"100 390 OFFCURVE",
"108 419 OFFCURVE",
"160 419 CURVE SMOOTH",
"412 419 LINE",
"58 59 LINE",
"58 0 LINE"
);
}
);
};
layerId = "0E6FACCE-B85C-44A4-8B06-9EFDFED90B40";
paths = (
{
closed = 1;
nodes = (
"476 4 LINE SMOOTH",
"487.046 4 OFFCURVE",
"496 12.954 OFFCURVE",
"496 24 CURVE SMOOTH",
"496 35.046 OFFCURVE",
"487.046 44 OFFCURVE",
"476 44 CURVE SMOOTH",
"118.367 44 LINE",
"461.659 432.437 LINE SMOOTH",
"473.21 445.508 OFFCURVE",
"468.03 457 OFFCURVE",
"450.587 457 CURVE SMOOTH",
"50 457 LINE SMOOTH",
"38.954 457 OFFCURVE",
"30 448.046 OFFCURVE",
"30 437 CURVE SMOOTH",
"30 425.954 OFFCURVE",
"38.954 417 OFFCURVE",
"50 417 CURVE SMOOTH",
"394.633 417 LINE",
"51.341 28.563 LINE SMOOTH",
"39.79 15.492 OFFCURVE",
"44.97 4 OFFCURVE",
"62.413 4 CURVE SMOOTH"
);
}
);
width = 516;
}
);
unicode = 007A;
},
{
export = 0;
glyphname = _corner.lc;
lastChange = "2016-07-15 19:31:53 +0000";
layers = (
{
layerId = "0E6FACCE-B85C-44A4-8B06-9EFDFED90B40";
paths = (
{
closed = 0;
nodes = (
"109 0 LINE",
"34 0 OFFCURVE",
"0 28 OFFCURVE",
"0 90 CURVE"
);
}
);
width = 210;
}
);
},
{
export = 0;
glyphname = _part.s;
lastChange = "2016-07-15 19:46:15 +0000";
layers = (
{
layerId = "0E6FACCE-B85C-44A4-8B06-9EFDFED90B40";
paths = (
{
closed = 1;
nodes = (
"438.544 -1 OFFCURVE",
"481 44.585 OFFCURVE",
"481 135 CURVE SMOOTH",
"481 216.934 OFFCURVE",
"441.002 258 OFFCURVE",
"361 258 CURVE SMOOTH",
"194 258 LINE SMOOTH",
"133.247 258 OFFCURVE",
"109 281.244 OFFCURVE",
"109 339 CURVE SMOOTH",
"109 403.763 OFFCURVE",
"127.539 429 OFFCURVE",
"172 429 CURVE SMOOTH",
"350 429 LINE SMOOTH",
"407.117 429 OFFCURVE",
"430 403.372 OFFCURVE",
"430 338 CURVE SMOOTH",
"430 326.954 OFFCURVE",
"438.954 318 OFFCURVE",
"450 318 CURVE SMOOTH",
"461.046 318 OFFCURVE",
"470 326.954 OFFCURVE",
"470 338 CURVE SMOOTH",
"470 425.048 OFFCURVE",
"429.966 469 OFFCURVE",
"350 469 CURVE SMOOTH",
"172 469 LINE SMOOTH",
"103.11 469 OFFCURVE",
"69 424.487 OFFCURVE",
"69 339 CURVE SMOOTH",
"69 258.815 OFFCURVE",
"111.254 218 OFFCURVE",
"194 218 CURVE SMOOTH",
"361 218 LINE SMOOTH",
"418.623 218 OFFCURVE",
"441 194.894 OFFCURVE",
"441 135 CURVE SMOOTH",
"441 66.137 OFFCURVE",
"415.628 39 OFFCURVE",
"352 39 CURVE SMOOTH",
"176.114 40 LINE SMOOTH",
"114.112 40 OFFCURVE",
"90 63.373 OFFCURVE",
"90 123 CURVE SMOOTH",
"90 134.046 OFFCURVE",
"81.046 143 OFFCURVE",
"70 143 CURVE SMOOTH",
"58.954 143 OFFCURVE",
"50 134.046 OFFCURVE",
"50 123 CURVE SMOOTH",
"50 41 OFFCURVE",
"92.065 0 OFFCURVE",
"176 0 CURVE SMOOTH",
"351.886 -1 LINE SMOOTH"
);
}
